<?xml version="1.0" encoding="UTF-8"?>
<svg id="Layer_1" xmlns="http://www.w3.org/2000/svg" xmlns:xlink="http://www.w3.org/1999/xlink" version="1.1" viewBox="0 0 1280 800">
  <!-- Generator: Adobe Illustrator 29.5.1, SVG Export Plug-In . SVG Version: 2.1.0 Build 141)  -->
  <defs>
    <style>
      .st0 {
        fill: #88e1c8;
      }

      .st0, .st1, .st2, .st3, .st4, .st5, .st6, .st7, .st8, .st9, .st10, .st11, .st12, .st13, .st14, .st15 {
        stroke-width: .3px;
      }

      .st0, .st1, .st2, .st16, .st4, .st5, .st6, .st7, .st9, .st10, .st11, .st12, .st13, .st14 {
        stroke-linecap: round;
        stroke-linejoin: round;
      }

      .st0, .st2, .st3, .st4, .st7, .st9, .st10, .st11, .st13, .st15 {
        stroke: #1f4e5e;
      }

      .st17, .st7 {
        fill: #eef2fd;
      }

      .st1 {
        fill: #eef1fb;
      }

      .st1, .st6, .st14 {
        stroke: #2c4d5c;
      }

      .st2 {
        fill: #ea5533;
      }

      .st3, .st16, .st5, .st6, .st8, .st10, .st12 {
        fill: none;
      }

      .st3, .st8, .st15 {
        stroke-miterlimit: 10;
      }

      .st18 {
        fill: #aecef8;
      }

      .st19 {
        fill: #e0f1fd;
      }

      .st20, .st13 {
        fill: #ecf0fb;
      }

      .st21 {
        fill: #e0edf9;
      }

      .st22 {
        fill: url(#linear-gradient);
      }

      .st16 {
        stroke: #89e3ca;
      }

      .st23, .st4, .st15 {
        fill: #1f4e5e;
      }

      .st5 {
        stroke: #ecf0fb;
      }

      .st24 {
        fill: #fff;
      }

      .st8 {
        stroke: #fff;
      }

      .st9 {
        fill: #ed5533;
      }

      .st11 {
        fill: #89e3ca;
      }

      .st25, .st14 {
        fill: #2c4d5c;
      }

      .st12 {
        stroke: #eef2fd;
      }

      .st26 {
        fill: #e2effb;
      }

      .st27 {
        fill: #deeffb;
      }
    </style>
    <linearGradient id="linear-gradient" x1="835.8" y1="488.1" x2="835.8" y2="523" gradientUnits="userSpaceOnUse">
      <stop offset="0" stop-color="#89e3ca" stop-opacity="0"/>
      <stop offset=".2" stop-color="#89e3ca" stop-opacity=".2"/>
      <stop offset=".4" stop-color="#89e3ca" stop-opacity=".4"/>
      <stop offset=".5" stop-color="#89e3ca" stop-opacity=".5"/>
      <stop offset=".7" stop-color="#89e3ca" stop-opacity=".6"/>
      <stop offset=".9" stop-color="#89e3ca" stop-opacity=".7"/>
      <stop offset="1" stop-color="#89e3ca" stop-opacity=".7"/>
    </linearGradient>
  </defs>
  <path class="st7" d="M995.3,475c-.5,3.1-2.3,5.9-4.3,7.2l-30.3,17.6-79.9-46v-3.6l79.9,46,34.8-25.9v4.6h-.2Z"/>
  <path class="st7" d="M989.3,460.5l-63.2-36.5-45.4,26.3,79.9,46,30.3-17.6c4.4-3,7.9-12.6-1.6-18.1h0Z"/>
  <path class="st15" d="M292.9,367.8h3v22.1c0,.8-.7,1.5-1.5,1.5s-1.5-.7-1.5-1.5v-23.8,1.8h0ZM316,344.1h3v22.1c0,.8-.7,1.5-1.5,1.5s-1.5-.7-1.5-1.5v-23.8,1.8h0ZM337.8,342.4h3v22.1c0,.8-.7,1.5-1.5,1.5s-1.5-.7-1.5-1.5v-23.8,1.8h0ZM595.4,314.8h3v22.1c0,.8-.7,1.5-1.5,1.5s-1.5-.7-1.5-1.5v-23.8,1.8h0ZM625.6,316.4h3v22.1c0,.8-.7,1.5-1.5,1.5s-1.5-.7-1.5-1.5v-23.8,1.8h0ZM472.9,266.6h3v22.1c0,.8-.7,1.5-1.5,1.5s-1.5-.7-1.5-1.5v-23.8,1.8h0ZM500,252.8h3v22.1c0,.8-.7,1.5-1.5,1.5s-1.5-.7-1.5-1.5v-23.8,1.8h0ZM577.9,291.1h3v22.1c0,.8-.7,1.5-1.5,1.5s-1.5-.7-1.5-1.5v-23.8,1.8h0ZM548.1,286.4h3v22.1c0,.8-.7,1.5-1.5,1.5s-1.5-.7-1.5-1.5v-23.8,1.8h0ZM357.7,327.9h3v22.1c0,.8-.7,1.5-1.5,1.5s-1.5-.7-1.5-1.5v-23.8,1.8h0Z"/>
  <path class="st7" d="M1024.6,442.9l-21.4-12.3,22-12.8-27.6-15.9-22,12.8-20.8-12,1.7-1.1c54.8-31.9,54-83.9-1.7-116.1-55.8-32.2-145.8-32.5-200.6-.6l-85.1,47.9,20.6,19.9,92.2-51.9c39.7-23,104.9-22.8,145.4.6s41.2,61.1,1.6,84.2l-97.1,56.5-125.8-73.7-27.5,15.9,125.8,73.7-19.2,11.8c-57.4,37.8-49.7,109.7-2.5,143.7l-51.9,30.1c-19.2,11.2-43,11.2-62.2,0l-240.2-138.6,233.9-136.4-20.6-20-241,140.4-143-82.6c-4.4-2.6-4.4-8.9,0-11.5l204.4-118.2c19.2-11.1,42.9-11.1,62.2,0l104.5,59.4,27.5-15.9-111-63c-32.4-18.7-72.3-18.7-104.7,0l-143.8,83.1-54.7,31.6c-22.1,12.8-22.1,44.7,0,57.5l6.4,3.7-30.8,17.8c-25,14.6-24.7,38.3.8,53,25.5,14.6,66.5,14.7,91.6.2l29.4-17.1c.8-.5,1.7-.5,2.5,0l305.4,176.1c32.4,18.7,72.4,18.6,104.8-.2l273.2-158.7c29-16.8,28.7-44.3-.8-61.4h0ZM293,493.3c-17,9.9-44.9,9.8-62.4-.3-17.4-10.1-17.8-26.2-.7-36.1l30.7-17.8,61.4,35.4c.7.4.7,1.5,0,1.9l-29.1,16.9h.1ZM807.8,594.9c-49.2-43.2-40.3-87.7,5.7-113.6l15.8-8.9,95.3,55-116.8,67.5ZM995.3,486l-43.3,25.4-95.3-55,67.9-39.4,70.1,39.4c14.2,8.2,14.5,21.4.6,29.5h0Z"/>
  <path class="st10" d="M808.2,616.3l-13.5-13c-49.2-46.8-45.8-99.7,6.4-129.1l7.4-4.3"/>
  <path class="st3" d="M678.2,341.6l89.7-50.4c47.4-27.5,125.1-27.3,173.2.5,48.2,27.8,48.8,72.8,1.5,100.3l-77.5,45M397.6,504.6l253.1-147"/>
  <path class="st10" d="M958,529.2l61.3-35.5c15.5-9,15.3-31.3-.3-40.1l-92.4-52"/>
  <path class="st3" d="M776.2,424.5l-81.8-49.5-49.6-48.7-111.4-60.8c-25.4-13.9-56.3-13.6-81.4,1l-203.9,118.2c-12.9,7.4-12.9,26,0,33.5l410.3,236.9c25.8,14.9,57.8,14.9,83.5,0l216-125.9M869.5,480.9l-93.2-56.4M953.6,531.8l-111.9-67.7"/>
  <path class="st15" d="M259.9,378.5h3v22.1c0,.8-.7,1.5-1.5,1.5s-1.5-.7-1.5-1.5v-23.8,1.8h0ZM660.5,348.9l3,1.7v29.1c0,.8-.7,1.5-1.5,1.5s-1.5-.7-1.5-1.5v-30.8h0Z"/>
  <path class="st18" d="M685.2,378.4h-3v-21.7c0-.8.7-1.5,1.5-1.5s1.5.7,1.5,1.5v21.7Z"/>
  <path class="st7" d="M656.3,320.2l-27.5,15.9,49.7,48.3,27.5-16-49.7-48.2ZM1052.4,422.8c1.2.7,1.2,1.8,0,2.6l-4.6,2.7c-1.6.9-4,.9-5.5,0l-4.7-2.7c-1.2-.7-1.2-1.8,0-2.6l4.6-2.7c1.5-.9,4-.9,5.5,0l4.7,2.7Z"/>
  <path class="st4" d="M1045.5,421.9v2.2s0,.3-.3.4c-.3.2-.8.2-1.1,0-.2,0-.3-.2-.3-.4v-2.2s0,.3.3.4c.3.2.8.2,1.1,0,.2-.2.3-.3.3-.4"/>
  <path class="st26" d="M1045.5,421.9c0-.3-.3-.4-.8-.4s-.8.2-.8.4.4.4.8.4.8-.2.8-.4"/>
  <path class="st11" d="M1044.7,410.8c1.6,0,3.5,4.5,3.5,7.9s-.7,4.5-3.5,4.5-3.5-2.2-3.5-4.5c0-3.4,1.9-7.9,3.5-7.9"/>
  <path class="st7" d="M1034.4,389.3c1.2.7,1.2,1.8,0,2.6l-4.6,2.7c-1.6.9-4,.9-5.5,0l-4.7-2.7c-1.2-.7-1.2-1.8,0-2.6l4.6-2.7c1.5-.9,4-.9,5.5,0l4.7,2.7Z"/>
  <path class="st4" d="M1027.4,388.4v2.2s0,.3-.3.4c-.3.2-.8.2-1.1,0-.2,0-.3-.2-.3-.4v-2.2s0,.3.3.4c.4.2.8.2,1.1,0,.2-.2.3-.3.3-.4"/>
  <path class="st26" d="M1027.4,388.4c0-.3-.3-.4-.8-.4s-.8.2-.8.4.3.4.8.4.8-.2.8-.4"/>
  <path class="st11" d="M1026.7,377.3c1.6,0,3.5,4.5,3.5,7.9s-.7,4.5-3.5,4.5-3.5-2.2-3.5-4.5c0-3.4,1.9-7.9,3.5-7.9"/>
  <path class="st24" d="M533.2,586.8c.2-.3.2-.5.4-.8,0,.3-.2.5-.4.8"/>
  <path class="st11" d="M995.6,547.4v9.5l-2.5-1.4-10.8-6.2v-9.5l13.3,7.6Z"/>
  <path class="st7" d="M1011,538.5l-15.5,8.9-13.3-7.6,15.5-8.9,13.3,7.6Z"/>
  <path class="st23" d="M1008,539l.9-.5-11.1-6.3-12.9,7.4.9.5,12-6.9,10.2,5.8Z"/>
  <path class="st7" d="M1011.1,538.5v9.5l-15.5,8.9v-9.5l15.5-8.9Z"/>
  <path class="st23" d="M993.3,550.8v1.1l-9.2-5.2v-1.1l9.2,5.2ZM993.3,553v1.1l-9.2-5.2v-1.1l9.2,5.2ZM1003.4,557c-.8,0-1.4-.6-1.4-1.4v-2.3c0,0,0-.3-.2-.3l-1.9-1c-.7-.4-1-1.2-.7-1.8.3-.8,1.3-1,2-.6l2.8,1.5c.5.3.8.8.8,1.3v3.2c0,.8-.7,1.4-1.5,1.4h.1ZM1008.2,554.3c-.8,0-1.4-.6-1.4-1.4v-2.3c0,0,0-.3-.2-.3l-1.9-1c-.6-.4-.9-1.2-.6-1.8.3-.8,1.3-1,2-.6l2.8,1.5c.5.3.8.8.8,1.3v3.2c0,.8-.7,1.4-1.5,1.4"/>
  <path class="st11" d="M668.1,306.2v9.5l-2.5-1.4-10.8-6.2v-9.5l13.3,7.6Z"/>
  <path class="st7" d="M683.6,297.2l-15.5,8.9-13.3-7.6,15.5-8.9,13.3,7.6Z"/>
  <path class="st23" d="M680.6,297.7l.9-.5-11.1-6.3-12.9,7.4.9.5,12-6.9,10.2,5.8Z"/>
  <path class="st7" d="M683.6,297.2v9.5l-15.5,8.9v-9.5l15.5-8.9Z"/>
  <path class="st23" d="M665.8,309.5v1.1l-9.2-5.2v-1.1l9.2,5.2ZM665.8,311.7v1.1l-9.2-5.2v-1.1l9.2,5.2ZM676,315.8c-.8,0-1.4-.6-1.4-1.4v-2.3c0-.1,0-.3-.2-.4l-1.9-1c-.7-.4-1-1.1-.7-1.8.4-.8,1.3-1.1,2-.7l2.8,1.6c.5.3.8.8.8,1.4v3.2c0,.8-.7,1.4-1.5,1.4h.1ZM680.7,313c-.8,0-1.4-.6-1.4-1.4v-2.3c0-.1,0-.3-.2-.4l-1.9-1c-.7-.4-1-1.1-.7-1.8.3-.8,1.3-1.1,2-.7l2.8,1.6c.5.3.8.8.8,1.4v3.2c0,.8-.7,1.4-1.5,1.4h.1Z"/>
  <path class="st7" d="M267.4,198.6c.2.1.2.3,0,.4s-.5.1-.7,0-.2-.3,0-.4.5-.1.7,0"/>
  <path class="st3" d="M873.1,432.5l-64.5,37.5"/>
  <path class="st11" d="M924.3,427.4l63.1,36.4c5.2,3,5.2,10.5,0,13.5l-26.9,15.6-74.9-43.1,38.7-22.4Z"/>
  <path class="st11" d="M924.3,427.4l63.1,36.4c5.2,3,5.2,10.5,0,13.5l-26.9,15.6-74.9-43.1,38.7-22.4Z"/>
  <path class="st23" d="M924.3,429.1l63.1,36.4c2.3,1.3,3.6,3.6,3.8,5.9.3-2.9-.9-6-3.8-7.6l-63.1-36.4-38.7,22.4,1.5.9,37.2-21.5h0Z"/>
  <path class="st10" d="M644.9,326.4l49.6,48.7"/>
  <path class="st7" d="M620,568.8l-8.4,4.8-8.6-4.9,8.4-4.8,8.6,4.9Z"/>
  <path class="st7" d="M613.3,559.8c0-1-.8-1.9-1.9-1.9s-1.9.8-1.9,1.9v8.8c0,1,.8,1.9,1.9,1.9s1.9-.8,1.9-1.9v-8.8Z"/>
  <path class="st23" d="M613.3,565.8l-.5.3c-1,.6-2.1.9-3.3.7v-2.3h3.7v1.3h0Z"/>
  <path class="st11" d="M622.3,548.8c3,7.5-2,16-10,16.5h-1.7c-8-.5-13-9-10-16.5l4.6-11.4c2.3-5.7,10.3-5.7,12.6,0l4.6,11.4h0Z"/>
  <path class="st10" d="M608.1,546.9s2-.7,2.4,1.4c0,0,1.2-.4,1.8.9M609.2,541.4s.8-2,2.7-.8c0,0,.5-1.2,1.8-.7M610.7,556s1.5-1.6,2.8.2c0,0,.8-.9,2,0"/>
  <path class="st7" d="M746.4,276.1l-8.4,4.9-8.6-4.9,8.4-4.9,8.6,4.9Z"/>
  <path class="st7" d="M737.9,277h-.2c-.5,0-.9-.6-.8-1.1,0-.3,4.6-31.8,0-52.1,0-.5.2-1.1.8-1.2.5-.1,1.1.2,1.2.8,4.7,20.7,0,52.6,0,52.9,0,.5-.5.8-1,.8h0Z"/>
  <path class="st11" d="M738.8,224.7c2.9.8,9.3,5.2,9.3,5.2-1.4-3.8-6-6.1-8.3-6.1,4.2-.7,10.2.3,10.2.3-3.3-3.3-7.7-2.6-10.1-1.4,3.5-2.2,9.3-4.2,9.3-4.2-4.8-1.7-7.8.5-9.3,2.8,2.5-4,6.3-6.8,6.3-6.8-4.4,0-6.5,2.9-7.5,4.9-.5-2.2-2.3-5.4-6.2-6.4,0,0,2.8,1.6,4.4,6.9-1.2-1.9-3.6-3.5-8.5-3.4,0,0,4.5,1.4,7.4,4.7-1.8-1.8-5-2.9-10-.5,0,0,5.8.9,8.6,2-2.5-.4-6.2.3-8.1,4.7,0,0,3-3.1,9.5-3.2-1.7.6-4.5,2.2-5.7,5.2l7.2-4.5,1.7-.3h-.2Z"/>
  <path class="st7" d="M793.7,658.3l8.4,4.9,8.6-4.9-8.4-4.9-8.6,4.9Z"/>
  <path class="st7" d="M802.2,659.2h0c.6,0,.9-.6.8-1.1,0-.3-4.6-31.8,0-52.1,0-.5-.2-1.1-.8-1.2-.5,0-1.1.2-1.2.8-4.7,20.7,0,52.6,0,52.9,0,.5.5.8,1,.8h.1Z"/>
  <path class="st11" d="M801.2,606.9c-3,.8-9.3,5.2-9.3,5.2,1.4-3.8,6-6.2,8.3-6.2-4.2-.7-10.2.3-10.2.3,3.3-3.3,7.7-2.6,10.1-1.4-3.5-2.2-9.3-4.2-9.3-4.2,4.8-1.7,7.8.5,9.3,2.8-2.5-4-6.3-6.8-6.3-6.8,4.4,0,6.5,2.9,7.5,5,.5-2.2,2.3-5.4,6.2-6.4,0,0-2.8,1.7-4.4,6.9,1.2-1.9,3.6-3.6,8.5-3.4,0,0-4.5,1.4-7.4,4.7,1.8-1.8,5-2.9,10.1-.5,0,0-5.8.9-8.6,2,2.5-.3,6.2.3,8.1,4.7,0,0-3-3.1-9.5-3.2,1.7.6,4.5,2.2,5.7,5.2l-7.2-4.5-1.7-.3h.1Z"/>
  <path class="st7" d="M619.6,274.4l-8.4,4.9-8.6-4.9,8.4-4.9,8.6,4.9Z"/>
  <path class="st7" d="M611.1,275.3c-.4,0-.7-.2-.9-.6-5.5-11.2-5.2-25.2-4-35,1.3-10.5,3.9-18.6,4-18.7.2-.5.7-.8,1.3-.6s.8.7.6,1.3c0,0-2.6,8-3.9,18.3-1.2,9.5-1.5,23.1,3.8,33.8.2.5,0,1.1-.5,1.3h-.4v.2Z"/>
  <path class="st11" d="M612.1,223c3,.8,9.3,5.2,9.3,5.2-1.4-3.8-6-6.1-8.3-6.1,4.2-.7,10.2.3,10.2.3-3.3-3.3-7.7-2.6-10.1-1.4,3.5-2.2,9.3-4.2,9.3-4.2-4.8-1.7-7.8.5-9.3,2.8,2.5-4,6.3-6.8,6.3-6.8-4.4,0-6.5,2.9-7.5,4.9-.5-2.2-2.3-5.4-6.2-6.4,0,0,2.8,1.6,4.4,6.9-1.2-1.9-3.6-3.6-8.5-3.4,0,0,4.5,1.4,7.4,4.7-1.8-1.8-5-2.9-10-.5,0,0,5.8.9,8.6,2-2.5-.3-6.2.3-8.1,4.7,0,0,3-3.1,9.5-3.2-1.7.6-4.5,2.2-5.7,5.2l7.2-4.5,1.7-.3h-.2Z"/>
  <path class="st7" d="M1085.7,501.9l-8.4,4.8-8.6-4.9,8.4-4.8,8.6,4.9Z"/>
  <path class="st7" d="M1077.2,502.9c-.4,0-.7-.2-.9-.6-5.5-11.2-5.2-25.2-4-35,1.3-10.5,3.9-18.6,4-18.7.2-.5.7-.8,1.3-.6.5.2.8.7.6,1.3,0,0-2.6,8-3.9,18.3-1.2,9.5-1.5,23,3.8,33.8.2.5,0,1.1-.5,1.3,0,0-.3.1-.4.1h0Z"/>
  <path class="st11" d="M1078.2,450.6c3,.8,9.3,5.2,9.3,5.2-1.4-3.8-6-6.1-8.3-6.1,4.2-.7,10.2.3,10.2.3-3.3-3.3-7.7-2.6-10.1-1.4,3.5-2.2,9.3-4.2,9.3-4.2-4.8-1.7-7.8.5-9.3,2.8,2.5-4,6.3-6.8,6.3-6.8-4.4,0-6.5,2.9-7.5,5-.5-2.2-2.3-5.4-6.2-6.4,0,0,2.8,1.6,4.4,6.9-1.2-1.9-3.6-3.5-8.5-3.4,0,0,4.5,1.4,7.4,4.7-1.8-1.8-5-2.9-10-.5,0,0,5.8.9,8.6,2-2.5-.4-6.2.3-8.1,4.7,0,0,3-3.1,9.5-3.2-1.7.6-4.5,2.2-5.7,5.2l7.2-4.5,1.6-.3h-.1Z"/>
  <path class="st7" d="M934.8,596l8.4,4.8,8.6-4.9-8.4-4.8-8.6,4.9Z"/>
  <path class="st7" d="M943.3,597c.4,0,.7-.2.9-.6,5.5-11.2,5.2-25.2,4-34.9-1.3-10.5-3.9-18.6-4-18.7-.2-.5-.7-.8-1.3-.6-.5.2-.8.7-.6,1.3,0,0,2.6,8,3.9,18.3,1.2,9.5,1.5,23-3.8,33.8-.2.5,0,1.1.5,1.3,0,0,.3,0,.4,0"/>
  <path class="st11" d="M942.3,544.6c-3,.8-9.3,5.2-9.3,5.2,1.4-3.8,6-6.2,8.3-6.2-4.1-.7-10.2.3-10.2.3,3.3-3.3,7.7-2.6,10.1-1.4-3.5-2.2-9.4-4.2-9.4-4.2,4.9-1.7,7.8.5,9.4,2.8-2.5-4-6.3-6.8-6.3-6.8,4.4,0,6.5,2.9,7.5,5,.5-2.2,2.3-5.4,6.2-6.4,0,0-2.8,1.7-4.4,6.9,1.2-1.9,3.6-3.5,8.5-3.4,0,0-4.5,1.4-7.4,4.7,1.8-1.8,5-2.9,10-.5,0,0-5.8.9-8.6,2,2.5-.4,6.2.3,8.1,4.7,0,0-3-3.1-9.5-3.2,1.6.6,4.5,2.2,5.6,5.2l-7.2-4.5-1.6-.3h.2Z"/>
  <path class="st10" d="M960.6,499.8v-3.6"/>
  <path class="st7" d="M929.3,450.4l-8.4,4.9-8.6-4.9,8.4-4.9,8.6,4.9Z"/>
  <path class="st7" d="M922.6,441.4c0-1-.8-1.9-1.9-1.9s-1.9.8-1.9,1.9v8.8c0,1,.8,1.9,1.9,1.9s1.9-.8,1.9-1.9v-8.8Z"/>
  <path class="st23" d="M922.6,447.5l-.5.3c-1,.6-2.1.9-3.3.7v-2.3h3.7v1.3h0Z"/>
  <path class="st11" d="M931.6,430.5c3,7.4-2,15.9-10,16.5h-1.7c-8-.5-13-9-10-16.5l4.6-11.4c2.3-5.7,10.3-5.7,12.6,0l4.6,11.4h0Z"/>
  <path class="st10" d="M917.4,428.6s2-.7,2.4,1.4c0,0,1.2-.4,1.8.9M918.5,423.1s.8-2,2.7-.8c0,0,.5-1.2,1.9-.7M920,437.7s1.5-1.6,2.8.2c0,0,.8-.9,2,0"/>
  <path class="st7" d="M967.9,470.5l-8.4,4.9-8.6-4.9,8.4-4.9,8.6,4.9Z"/>
  <path class="st7" d="M961.3,461.5c0-1-.8-1.9-1.9-1.9s-1.9.8-1.9,1.9v8.8c0,1,.8,1.9,1.9,1.9s1.9-.8,1.9-1.9v-8.8Z"/>
  <path class="st23" d="M961.3,467.6l-.5.3c-1,.6-2.1.9-3.3.7v-2.3h3.7v1.3h0Z"/>
  <path class="st11" d="M970.2,450.5c3,7.5-2,16-10,16.5h-1.7c-8-.5-13-9-10-16.5l4.6-11.4c2.3-5.7,10.3-5.7,12.6,0l4.6,11.4h0Z"/>
  <path class="st10" d="M956.1,448.7s2-.7,2.4,1.4c0,0,1.2-.4,1.8.9M957.2,443.2s.8-2,2.7-.8c0,0,.5-1.2,1.8-.7M958.6,457.8s1.5-1.6,2.8.2c0,0,.8-.9,2,0"/>
  <path class="st7" d="M681,262.9h-.3c-1,0-1.9.8-1.9,1.9v15.8c0,1,.8,1.9,1.9,1.9h.3c1,0,1.9-.8,1.9-1.9v-15.8c0-1-.8-1.9-1.9-1.9"/>
  <path class="st23" d="M682.8,271.5l-.5.3c-1,.7-2.3,1-3.6.7v-2.5h4.1v1.4h0Z"/>
  <path class="st11" d="M694.5,250.1c3.8,9.4-2.5,20.1-12.6,20.8h-2.2c-10.1-.7-16.4-11.4-12.6-20.8l5.8-14.4c2.9-7.1,13-7.1,15.8,0l5.8,14.4Z"/>
  <path class="st10" d="M673.2,250.9s2.2-.8,2.6,1.5c0,0,1.3-.5,1.9,1M680,243.2s.9-2.2,2.9-.9c0,0,.5-1.3,2-.8M680,260.9s1.6-1.7,3,.2c0,0,.9-1,2.2,0"/>
  <path class="st7" d="M753.7,487.3l-8.4,4.8-8.6-4.9,8.4-4.8,8.6,4.9Z"/>
  <path class="st7" d="M747.1,478.3c0-1-.8-1.9-1.9-1.9s-1.9.8-1.9,1.9v8.8c0,1,.8,1.9,1.9,1.9s1.9-.8,1.9-1.9v-8.8Z"/>
  <path class="st23" d="M747.1,484.4l-.5.3c-1,.7-2.1.9-3.3.7v-2.3h3.7v1.3h0Z"/>
  <path class="st11" d="M756,467.4c3,7.5-2,16-10,16.5h-1.7c-8-.5-13-9-10-16.5l4.6-11.4c2.3-5.7,10.3-5.7,12.6,0l4.6,11.4h0Z"/>
  <path class="st10" d="M741.9,465.5s2-.7,2.4,1.4c0,0,1.2-.4,1.8.9M743,460s.8-2,2.7-.8c0,0,.5-1.2,1.8-.7M744.4,474.6s1.5-1.6,2.8.2c0,0,.8-.9,2,0"/>
  <path class="st4" d="M529.3,606.7l.8-1.4,3.9,1.5-.8,1.6-3.8-1.7h-.1ZM521.8,625.3c1.2-3.1,3.8-4.9,5.8-4.1.2,0,.4.2.6.3-.4-.5-.9-.9-1.5-1.2-2.4-.9-5.3,1.1-6.5,4.4s-.3,6.7,2,7.6c.7.2,1.3.3,2,0-.2,0-.5,0-.7-.2-2.1-.8-2.8-3.9-1.6-6.9h0Z"/>
  <path class="st7" d="M528.6,627.9c.9-2.4.7-4.9-.5-6.4l-.6-.3c-2.1-.8-4.7,1.1-5.8,4.1-1.2,3.1-.4,6.2,1.6,6.9.2,0,.5,0,.7.2,1.8-.4,3.6-2.1,4.5-4.5h0Z"/>
  <path class="st7" d="M527.6,627.7c1-2.3.6-4.6-.7-5.1-1.4-.6-3.2.8-4.2,3-1,2.3-.6,4.6.7,5.1,1.4.6,3.2-.8,4.2-3"/>
  <path class="st4" d="M527.7,623.2c.2,1,0,2.3-.4,3.6-1,2.3-2.8,3.6-4.2,3-.3,0-.5-.3-.7-.6.2.7.6,1.3,1.2,1.6,1.4.6,3.2-.8,4.2-3,.8-1.8.7-3.6,0-4.5h0ZM546.5,618.6c1.1-2.9,3.6-4.7,5.6-4,.2,0,.4.2.6.3-.4-.5-.9-.9-1.5-1.1-2.3-.8-5.1,1-6.3,4.2s-.3,6.4,1.9,7.3c.6.2,1.3.3,2,0-.2,0-.5,0-.7-.2-2-.8-2.7-3.7-1.6-6.6"/>
  <path class="st7" d="M553,621.1c.9-2.3.6-4.7-.5-6.2l-.6-.3c-2-.8-4.5,1-5.6,4-1.1,2.9-.4,5.9,1.6,6.7.2,0,.5,0,.7.2,1.7-.4,3.4-2,4.3-4.3h0Z"/>
  <path class="st7" d="M551.7,620.7c.8-1.8.5-3.6-.6-4-1.1-.5-2.5.6-3.3,2.4s-.5,3.6.6,4c1.1.5,2.5-.6,3.3-2.4"/>
  <path class="st23" d="M551.7,617.2c.2.8,0,1.8-.3,2.8-.8,1.8-2.2,2.8-3.3,2.4-.2,0-.4-.3-.6-.5,0,.6.5,1,.9,1.2,1.1.5,2.5-.6,3.3-2.4.6-1.4.6-2.8,0-3.6h0Z"/>
  <path class="st7" d="M537.2,617.7l-3.3,1.5v4.7l5,.8,7.7-4.6-1.8-2.2-7.5-.2h-.1Z"/>
  <path class="st7" d="M539.2,613.7l-1.8.2v2.6c0,.7-1,2.2-.9,2.7s2.2,1.4,2.8,1.4c.6-.9,1.2-2.1,1.3-2.9,0-.6-.9-2.8-1.4-4.1h0Z"/>
  <path class="st4" d="M544.3,613.1l-5.2.6c.6,1.3,1.5,3.5,1.4,4.1,0,.8-.7,2-1.3,2.9h0c.5,0,5.5-.6,6-.8.6,0,1.5-1.4,1.5-1.4l-2.7-5.4h.3ZM526.2,627.1c.4-1,.3-1.9-.3-2.2s-1.4.3-1.8,1.3-.3,1.9.3,2.2c.6.2,1.4-.3,1.8-1.3M550.8,620.1c.4-1,.3-1.9-.3-2.2-.6-.2-1.4.3-1.8,1.3s-.3,1.9.3,2.2c.6.2,1.4-.3,1.8-1.3"/>
  <path class="st7" d="M544,614.4c-1,.7-1.3,1.4-.6,2s2.2,1.9,2.8,2.4,1.1.4,1.9,0c.9-.4,1.5-.7,2.7-2s4-5,3.4-6.4c-.3-.6-.7-1-1.1-1.2l-2.4.6-6.8,4.7h0Z"/>
  <path class="st7" d="M546.2,618.7c0,0-.3-.2-.5-.4,0,0,.5,1.7-1.2,2.4s-6.5,2.6-7.7,2.9-1.8-.5-2.2-2-1.2-4.6-1.4-5.3,0-1.3.6-3,1-2.7,1.1-3.3c0-.5,0-1.4-.9-1.9-1-.4-3.7-1.4-4.8-1.8s-1.6-.3-2.1.7c0,0-2.7,5.4-3.2,7-.2.5,0,1.1,0,1.9.6.7,1.7,1,2.5,1.3,1.2.5,2.4.6,3.4,2.6.8,1.5,2.4,5.2,3.1,6.8,1.3.6,1.6.7,3.7,0,2.3-.8,7.5-2.7,8.2-3.1s1.7-.9,3.4-4.8c-.9.4-1.3.5-1.9,0h0Z"/>
  <path class="st4" d="M526.3,617.2c-.8-.3-1.9-.6-2.5-1.3.4,2,1.6,4.4,1.6,4.4l1.4,3s4.1,2.3,5.7,3.1c0,0,.3,0,.4.2-.7-1.5-2.4-5.2-3.1-6.8-1-2-2.2-2.1-3.4-2.6h-.1Z"/>
  <path class="st7" d="M530,602.2s-.7,1.3-1,1.9c-.2.5,0,1.5.2,1.7s1.4.7,2.4,1,2,.7,2.5.6c.5,0,1.5-.8,1.5-.8v-.8l1.2-1.4-1.6-1.1s-2.5-1.1-3.3-1.3-1.6-.3-1.9,0h0Z"/>
  <path class="st10" d="M529,604c0,.2,0,.3.5.5s2.7,1,3,1.1.8.2,1.2-.3,1.4-1.9,1.4-1.9"/>
  <path class="st7" d="M535.6,606.7l1.2.3.6-.2.8-1.2-.3-.8-1.1-.5-1.2,1.4v1Z"/>
  <path class="st7" d="M535.5,605.8l1.2.3v.8l-1.2-.3v-.8Z"/>
  <path class="st4" d="M536.8,606.2v.8l.7-.2.8-1.2-.3-.8-1.1,1.3h-.1Z"/>
  <path class="st7" d="M537.8,605.5c0,0-.3,0-.4,0-.2.3-.2.6,0,.7.3,0,2.5.9,2.8,1s.5-.2.5-.5-.2-.4-.3-.4-2-.7-2.6-1h0ZM529.2,603.6l-1.7-.7c-.2,0-.3-.4-.2-.6,0-.2.3-.3.6-.2l1.7.7-.4.8ZM541.4,611.7c1.2-.6,9.5-1.3,11.2-4.9-.5-.4-1.4-.8-2.6-1-1.8-.2-6.3,1.5-7.8,2.4s-2.8,1.5-3.4,1.8c-.6.4-1.6,2.3-1.9,2.8s.2.9.4,1c.8.5,1.6.8,2.4.9,0-.7.6-2.7,1.6-3.2h0v.2Z"/>
  <path class="st4" d="M553.2,607.5c0-.2-.3-.5-.6-.7-1.7,3.6-10,4.3-11.2,4.9-1,.5-1.5,2.4-1.6,3.2,1.3.3,2.6.2,3.5-.2,1.2-.5,6.6-3.4,9-4.7.8-.4,1.2-1.4,1-2.2v-.2h-.1Z"/>
  <path class="st7" d="M529.2,625.7s.5.3.6.3.5-.4.3-1.4-.3-3.2-2.9-5-4.2,0-4.8.7-1.2,1.2-.4,1.6,1.4.6,2.3.5c.9,0,1.6-.3,2.1.6h.2l.2.4,1.9,1.1s.5.4.6,1.4h0v-.2Z"/>
  <path class="st7" d="M528.1,619.2s-3.1,6.8-3.3,7.3,0,1,.3,1.2.8,0,1.1-.7c.3-.8,3.2-6.8,3.2-6.8l-1.3-1Z"/>
  <path class="st4" d="M553.7,609.5s-.3.6-1.2,1.2c0,0-.2.3,0,.5s.3,0,.4,0c.3-.2.9-.7,1.3-1.2l-.4-.6h0Z"/>
  <path class="st7" d="M524.7,611.8s4.8,1.7,5.9,1.8c1.2,0,2.2-.3,2.2-.3l-.9,2.6s-.9.3-1.4.4c-.5,0-6.8-2.1-6.8-2.1l1-2.4Z"/>
  <path class="st4" d="M546.5,617.1l.8-1.4,3.9,1.5-.8,1.6-3.8-1.7h-.1ZM539,635.7c1.2-3.1,3.8-4.9,5.8-4.1.2,0,.4.2.6.3-.4-.5-.9-.9-1.5-1.2-2.4-.9-5.3,1.1-6.5,4.4s-.3,6.7,2,7.6c.7.2,1.3.3,2,0-.2,0-.5,0-.7-.2-2.1-.8-2.8-3.9-1.6-6.9h0Z"/>
  <path class="st7" d="M545.8,638.3c.9-2.5.7-4.9-.5-6.4l-.6-.3c-2.1-.8-4.7,1.1-5.8,4.1-1.2,3.1-.4,6.2,1.6,6.9.2,0,.5,0,.7.2,1.8-.4,3.6-2.1,4.5-4.5h0Z"/>
  <path class="st7" d="M544.8,638.1c1-2.3.6-4.6-.7-5.1-1.4-.6-3.2.8-4.2,3-1,2.3-.6,4.6.7,5.1,1.4.6,3.2-.8,4.2-3"/>
  <path class="st4" d="M544.8,633.6c.2,1,0,2.3-.4,3.6-1,2.3-2.8,3.6-4.2,3-.3,0-.5-.3-.7-.6.2.7.6,1.3,1.2,1.5,1.4.6,3.2-.8,4.2-3,.8-1.8.7-3.6,0-4.6h0ZM563.7,629c1.1-2.9,3.6-4.7,5.6-3.9.2,0,.4.2.6.3-.4-.5-.9-.9-1.5-1.1-2.3-.8-5.1,1-6.3,4.2s-.3,6.4,1.9,7.3c.6.2,1.3.3,2,0-.2,0-.5,0-.7-.2-2-.8-2.7-3.7-1.6-6.7"/>
  <path class="st7" d="M570.2,631.5c.9-2.3.6-4.7-.5-6.2l-.6-.3c-2-.8-4.5,1-5.6,3.9s-.4,5.9,1.6,6.7c.2,0,.5,0,.7.2,1.7-.4,3.4-2,4.3-4.3h0Z"/>
  <path class="st7" d="M568.8,631.1c.8-1.8.5-3.6-.6-4-1.1-.5-2.5.6-3.3,2.4s-.5,3.6.6,4c1.1.5,2.5-.6,3.3-2.4"/>
  <path class="st23" d="M568.9,627.6c.2.8,0,1.8-.3,2.8-.8,1.8-2.2,2.8-3.3,2.4-.2,0-.4-.3-.6-.5,0,.6.5,1,.9,1.2,1.1.5,2.5-.6,3.3-2.4.6-1.4.6-2.8,0-3.6h0Z"/>
  <path class="st7" d="M554.4,628.2l-3.3,1.4v4.7l5,.8,7.7-4.6-1.8-2.1-7.5-.2h-.1Z"/>
  <path class="st7" d="M556.3,624.2l-1.8.2v2.6c0,.7-1,2.2-.9,2.7s2.2,1.4,2.8,1.4c.6-.8,1.2-2.1,1.3-2.9,0-.6-.9-2.8-1.4-4.1h0Z"/>
  <path class="st4" d="M561.5,623.5l-5.2.7c.6,1.3,1.5,3.5,1.4,4.1,0,.8-.7,2-1.3,2.9h0c.5,0,5.5-.6,6-.8.6,0,1.5-1.4,1.5-1.4l-2.7-5.4h.3ZM543.4,637.5c.4-1,.3-1.9-.3-2.2-.6-.2-1.4.3-1.8,1.3s-.3,1.9.3,2.2c.6.2,1.4-.3,1.8-1.3M568,630.6c.4-1,.3-1.9-.3-2.2-.6-.2-1.4.3-1.8,1.3s-.3,1.9.3,2.2c.6.2,1.4-.3,1.8-1.3"/>
  <path class="st7" d="M561.2,624.8c-1,.7-1.3,1.4-.6,2s2.2,1.9,2.8,2.4,1.1.4,1.9,0,1.5-.7,2.7-2,4-5,3.4-6.4c-.3-.6-.7-1-1.1-1.2l-2.4.6-6.8,4.7h0Z"/>
  <path class="st7" d="M563.4,629.1c0,0-.3-.2-.5-.4,0,0,.5,1.7-1.2,2.4s-6.5,2.6-7.7,2.9-1.8-.5-2.2-2-1.2-4.6-1.4-5.3,0-1.4.6-3c.6-1.7,1-2.7,1.1-3.3,0-.5,0-1.4-.9-1.9-1-.4-3.7-1.4-4.8-1.8s-1.6-.3-2.1.7c0,0-2.7,5.4-3.2,7-.2.5,0,1.1,0,1.9.6.7,1.7,1,2.5,1.3,1.2.5,2.4.6,3.4,2.6.8,1.5,2.4,5.2,3.1,6.8,1.3.6,1.6.7,3.7,0,2.3-.8,7.5-2.6,8.2-3.1.7-.4,1.7-.9,3.4-4.8-.9.4-1.3.5-1.9,0h0Z"/>
  <path class="st4" d="M543.5,627.6c-.8-.3-1.9-.6-2.5-1.3.4,2,1.6,4.4,1.6,4.4l1.4,3s4.1,2.3,5.7,3.1c0,0,.3,0,.4.2-.7-1.5-2.4-5.2-3.1-6.8-1-2-2.2-2.1-3.4-2.6h-.1Z"/>
  <path class="st7" d="M547.2,612.6s-.7,1.3-1,1.9c-.2.5,0,1.5.2,1.7s1.4.7,2.4,1,2,.7,2.5.6c.5,0,1.5-.8,1.5-.8v-.8l1.2-1.4-1.6-1.1s-2.5-1.1-3.3-1.3-1.6-.3-1.9,0h0Z"/>
  <path class="st10" d="M546.2,614.5c0,.2,0,.3.5.5s2.7,1,3,1.1c.3,0,.8.2,1.2-.3s1.4-1.9,1.4-1.9"/>
  <path class="st7" d="M552.8,617.1l1.2.3.6-.2.8-1.2-.3-.8-1.1-.5-1.2,1.4v1Z"/>
  <path class="st7" d="M552.7,616.2l1.2.3v.8l-1.2-.3v-.8Z"/>
  <path class="st4" d="M554,616.6v.8l.7-.2.8-1.2-.3-.8-1.1,1.3h-.1Z"/>
  <path class="st7" d="M555,615.9c0,0-.3,0-.4,0-.2.3-.2.6,0,.7.3,0,2.5.9,2.8,1,.3,0,.5-.2.5-.5s-.2-.3-.3-.4c0,0-2-.7-2.6-1h0ZM546.4,614l-1.7-.7c-.2,0-.3-.4-.2-.6,0-.2.3-.3.6-.2l1.7.7-.4.8ZM558.6,622.1c1.2-.6,9.5-1.3,11.2-4.9-.5-.4-1.4-.8-2.6-1-1.8-.2-6.3,1.5-7.8,2.4s-2.8,1.5-3.4,1.8-1.6,2.3-1.9,2.8c-.2.6.2.9.4,1,.8.5,1.6.8,2.4.9,0-.7.6-2.7,1.6-3.2h0v.2Z"/>
  <path class="st4" d="M570.4,617.9c0-.2-.3-.5-.6-.7-1.7,3.6-10,4.3-11.2,4.9-1,.5-1.5,2.4-1.6,3.2,1.3.3,2.6.2,3.5-.2,1.2-.5,6.6-3.4,9-4.7.8-.4,1.2-1.4,1-2.2v-.2h-.1Z"/>
  <path class="st7" d="M546.4,636.1s.5.3.6.3.5-.4.3-1.4-.3-3.2-2.9-5-4.2,0-4.8.7c-.7.6-1.2,1.2-.4,1.6s1.4.6,2.3.5c.9,0,1.6-.3,2.1.6h.2l.2.4,1.9,1.1s.5.4.6,1.3h0Z"/>
  <path class="st7" d="M545.2,629.6s-3.1,6.8-3.3,7.3,0,1,.3,1.2c.4.2.8,0,1.1-.7s3.2-6.8,3.2-6.8l-1.3-1Z"/>
  <path class="st4" d="M570.9,619.9s-.3.6-1.2,1.2c0,0-.2.3,0,.5,0,0,.3,0,.4,0,.3-.2.9-.7,1.3-1.2l-.4-.6h0Z"/>
  <path class="st7" d="M541.9,622.2s4.8,1.7,5.9,1.8c1.2,0,2.2-.3,2.2-.3l-.9,2.6s-.9.3-1.4.4c-.5,0-6.8-2.2-6.8-2.2l1-2.4h0Z"/>
  <path class="st4" d="M568.1,629.4l.8-1.4,3.9,1.5-.8,1.6-3.8-1.7h-.1ZM560.6,648c1.2-3.1,3.8-4.9,5.8-4.1.2,0,.4.2.6.3-.4-.5-.9-.9-1.5-1.2-2.4-.9-5.3,1.1-6.5,4.4s-.3,6.7,2,7.6c.7.2,1.3.3,2,0-.2,0-.5,0-.7-.2-2.1-.8-2.8-3.9-1.6-6.9h0Z"/>
  <path class="st7" d="M567.4,650.6c.9-2.5.7-4.9-.5-6.4l-.6-.3c-2.1-.8-4.7,1.1-5.8,4.1-1.2,3.1-.4,6.2,1.6,6.9.2,0,.5,0,.7.2,1.8-.4,3.6-2.1,4.5-4.5h0Z"/>
  <path class="st7" d="M566.4,650.4c1-2.3.6-4.6-.7-5.1-1.4-.6-3.2.8-4.2,3-1,2.3-.6,4.6.7,5.1,1.4.6,3.2-.8,4.2-3"/>
  <path class="st4" d="M566.4,645.9c.2,1,0,2.3-.4,3.6-1,2.3-2.8,3.6-4.2,3-.3,0-.5-.3-.7-.6.2.7.6,1.3,1.1,1.5,1.4.6,3.2-.8,4.2-3,.8-1.8.7-3.6,0-4.5M585.3,641.3c1.1-2.9,3.6-4.7,5.6-4,.2,0,.4.2.5.3-.4-.5-.9-.9-1.5-1.1-2.3-.9-5.1,1-6.3,4.2s-.3,6.4,1.9,7.3c.6.2,1.3.3,2,0-.2,0-.5,0-.7-.2-2-.8-2.7-3.7-1.6-6.6h0Z"/>
  <path class="st7" d="M591.8,643.8c.9-2.3.6-4.7-.5-6.2-.2,0-.3-.2-.5-.3-2-.8-4.5,1-5.6,4-1.1,2.9-.4,5.9,1.6,6.6.2,0,.5,0,.7.2,1.7-.4,3.4-2,4.3-4.3"/>
  <path class="st7" d="M590.4,643.4c.8-1.8.5-3.6-.6-4-1.1-.5-2.5.6-3.3,2.4s-.5,3.6.6,4c1.1.5,2.5-.6,3.3-2.4"/>
  <path class="st23" d="M590.5,639.9c.2.8,0,1.8-.3,2.8-.8,1.8-2.2,2.8-3.3,2.4-.2,0-.4-.3-.6-.5.1.6.4,1,.9,1.2,1.1.5,2.5-.6,3.3-2.4.6-1.4.6-2.8,0-3.6h0Z"/>
  <path class="st7" d="M576,640.4l-3.3,1.5v4.7l5,.8,7.7-4.6-1.8-2.1-7.5-.2h-.1Z"/>
  <path class="st7" d="M578,636.4l-1.8.2v2.6c0,.7-1,2.2-.9,2.7,0,.4,2.2,1.4,2.8,1.4.6-.9,1.2-2.1,1.3-2.9,0-.6-.9-2.8-1.4-4.1h0Z"/>
  <path class="st4" d="M583.1,635.8l-5.2.6c.6,1.3,1.5,3.5,1.4,4.1,0,.8-.7,2-1.3,2.9h0c.5,0,5.5-.6,6-.8.6,0,1.6-1.4,1.6-1.4l-2.7-5.4h.2ZM565,649.8c.4-1,.3-1.9-.3-2.2-.6-.2-1.4.3-1.8,1.3s-.3,1.9.3,2.2c.6.2,1.4-.3,1.8-1.3M589.6,642.8c.4-1,.3-1.9-.3-2.2-.6-.2-1.4.3-1.8,1.3s-.3,1.9.3,2.2c.6.2,1.4-.3,1.8-1.3"/>
  <path class="st7" d="M582.8,637.1c-1,.7-1.3,1.4-.6,2s2.2,1.9,2.8,2.4,1.1.4,1.9,0c.9-.4,1.5-.7,2.7-2s4-5,3.4-6.4c-.3-.6-.7-1-1.1-1.2l-2.4.6-6.8,4.7h0Z"/>
  <path class="st7" d="M585,641.4c0,0-.3-.2-.5-.4,0,0,.5,1.7-1.2,2.4s-6.5,2.6-7.7,2.9-1.8-.5-2.2-2-1.2-4.6-1.4-5.3,0-1.3.5-3,1-2.7,1.1-3.3c0-.5,0-1.4-.9-1.9-1-.4-3.7-1.4-4.8-1.8s-1.6-.3-2.1.7c0,0-2.7,5.4-3.2,7-.2.5,0,1.1,0,1.9.6.7,1.7,1,2.5,1.3,1.2.5,2.4.6,3.4,2.6.8,1.5,2.4,5.2,3.1,6.8,1.3.6,1.6.7,3.7,0,2.3-.8,7.5-2.7,8.2-3.1s1.7-.9,3.4-4.8c-.9.4-1.3.5-1.9,0"/>
  <path class="st4" d="M565.1,639.9c-.8-.3-1.9-.6-2.5-1.3.4,2,1.6,4.4,1.6,4.4l1.4,2.9s4.1,2.3,5.7,3.1c0,0,.3,0,.4.2-.7-1.5-2.4-5.2-3.1-6.8-1-2-2.2-2.1-3.4-2.6h-.1Z"/>
  <path class="st7" d="M568.8,624.9s-.7,1.3-1,1.9c-.2.5,0,1.5.2,1.7.4.2,1.4.7,2.4,1.1,1,.3,2,.7,2.5.6.5,0,1.5-.8,1.5-.8v-.8l1.2-1.4-1.6-1.1s-2.5-1.1-3.3-1.3-1.6-.3-1.9,0"/>
  <path class="st10" d="M567.8,626.7c0,.2,0,.3.5.5s2.7,1.1,3,1.1.8.2,1.2-.3,1.4-1.9,1.4-1.9"/>
  <path class="st7" d="M574.4,629.4l1.2.3.6-.2.8-1.2-.3-.8-1.1-.5-1.2,1.4v1Z"/>
  <path class="st7" d="M574.3,628.5l1.2.3v.9l-1.2-.3v-.8h0Z"/>
  <path class="st4" d="M575.6,628.8v.9l.6-.2.8-1.2-.3-.8-1.1,1.3Z"/>
  <path class="st7" d="M576.6,628.2c0,0-.3,0-.4,0-.2.3-.2.6,0,.7.3,0,2.5.9,2.8,1s.5-.2.5-.5-.2-.4-.3-.4-2-.7-2.6-1h0ZM568,626.3l-1.7-.7c-.2,0-.3-.4-.2-.6,0-.2.3-.3.6-.2l1.7.7-.4.8ZM580.2,634.4c1.2-.6,9.5-1.3,11.2-4.9-.6-.4-1.4-.8-2.6-1-1.8-.2-6.3,1.5-7.8,2.4s-2.8,1.5-3.4,1.8-1.6,2.3-1.9,2.8.2.9.4,1c.8.5,1.6.8,2.4.9,0-.7.6-2.7,1.6-3.2h0v.2Z"/>
  <path class="st4" d="M592,630.2c0-.2-.3-.5-.6-.7-1.7,3.6-10,4.3-11.2,4.9-1,.5-1.5,2.4-1.6,3.2,1.3.3,2.6.2,3.5-.2,1.2-.5,6.6-3.4,9-4.7.8-.4,1.2-1.4,1-2.2v-.2h-.1Z"/>
  <path class="st7" d="M568,648.4s.5.3.6.3.5-.4.3-1.4-.3-3.2-2.9-5-4.2,0-4.8.7c-.7.7-1.2,1.2-.4,1.6s1.4.6,2.3.5c.9,0,1.6-.3,2,.6h.2l.2.4,1.9,1.1s.5.4.6,1.3h0Z"/>
  <path class="st7" d="M566.8,641.9s-3.1,6.8-3.3,7.3,0,1,.3,1.2c.4.2.8,0,1.1-.7.3-.8,3.2-6.8,3.2-6.8l-1.3-1Z"/>
  <path class="st4" d="M592.5,632.2s-.3.6-1.2,1.2c-.2,0-.2.3,0,.5s.3,0,.4,0c.3-.2,1-.7,1.3-1.2l-.4-.6h0Z"/>
  <path class="st7" d="M563.5,634.5s4.8,1.7,5.9,1.8c1.2,0,2.2-.3,2.2-.3l-.9,2.6s-.9.3-1.4.4c-.5,0-6.8-2.1-6.8-2.1l1-2.4ZM650.2,668.8l-43.3,25.2-3.6-2.1,43.3-25.2,3.6,2.1ZM528.1,640.2l-3.6,2.1-25.7-14.8,3.6-2.1,25.7,14.8ZM560.9,659.2l-3.6,2.1-25.7-14.8,3.6-2.1,25.7,14.8ZM596.5,679.7l-3.6,2.1-25.7-14.8,3.6-2.1,25.7,14.8Z"/>
  <path class="st4" d="M623.3,610v50.6c0,0-16-9.1-16-9.1v-50.6c0,0,16,9.1,16,9.1"/>
  <path class="st7" d="M623.3,610l1.4-.8v50.6c0,0-1.5.8-1.5.8v-50.6h0ZM607.5,600.8l1.4-.8,15.8,9.1-1.4.8-15.8-9.1ZM620.2,633.5v15.5l-12.4-7.1v-15.5l12.4,7.1Z"/>
  <path class="st7" d="M620.2,633.5l1.7-1v15.5l-1.8,1v-15.5h0ZM607.8,626.4l1.7-1,12.3,7.1-1.7,1-12.3-7.1ZM607.9,612.5l1.7-1,12.3,7.1-1.7,1-12.4-7.1h.1Z"/>
  <path class="st7" d="M622,618.7l-1.7,1-2.7,5.8v17.8l4.3-2.5v-22h.1Z"/>
  <path class="st7" d="M620.3,619.7l-12.4-7.1c0,6.5-2.6,8.4-2.6,11.2v12.3l12.3,7.1v-12.3c0-2.8,2.7-4.7,2.7-11.2"/>
  <path class="st7" d="M619.4,620.5l-10.8-6c0,5.6-2.5,6.3-2.5,10.2v10.6l10.5,6.1v-10.6c0-3.5,2.7-4.1,2.7-10.3h0Z"/>
  <path class="st17" d="M612.8,622.1l-1.2,3.4c-.3,1-.5,2-.5,3v7.5"/>
  <path class="st16" d="M612.8,622.1l-1.2,3.4c-.3,1-.5,2-.5,3v7.5"/>
  <path class="st11" d="M516.8,592.6c1.2.7,1.2,1.9,0,2.6l-26.8,15.6c-1.2.7-3.2.7-4.5,0l-178.9-103.3c-1.2-.7-1.2-1.9,0-2.6l26.8-15.6c1.2-.7,3.2-.7,4.5,0l178.9,103.3Z"/>
  <path class="st7" d="M523.7,591.2c2.1,1.2,2.1,3.1,0,4.3l-33.1,19.3c-2,1.2-5.4,1.2-7.4,0l-183.4-105.9c-2.1-1.2-2.1-3.1,0-4.3l33.1-19.3c2-1.2,5.4-1.2,7.4,0l183.4,105.9Z"/>
  <path class="st7" d="M523.7,595.5l-33.1,19.3c-2,1.2-5.4,1.2-7.4,0l-183.4-105.9c-1-.6-1.5-1.4-1.5-2.2v6.5c0,.8.5,1.6,1.5,2.2l183.4,105.9c2.1,1.2,5.4,1.2,7.4,0l33.1-19.3c1-.6,1.5-1.4,1.5-2.1v-6.5c0,.8-.5,1.5-1.5,2.1"/>
  <path class="st10" d="M351.3,491.7l-39.4,22.9c-.7.4-1.1,1.2-1.1,2v5.2M367.6,501l-39.4,22.9c-.7.4-1.1,1.1-1.1,2v5.2M383.9,510.5l-39.4,22.9c-.7.4-1.1,1.2-1.1,2v5.2M400.2,519.9l-39.4,22.9c-.7.4-1.1,1.1-1.1,2v5.2M416.5,529.3l-39.4,22.9c-.7.4-1.1,1.2-1.1,2v5.2M432.7,538.7l-39.4,22.9c-.7.4-1.1,1.1-1.1,2v5.2M449,548.1l-39.4,22.9c-.7.4-1.1,1.2-1.1,2v5.2M465.3,557.5l-39.4,22.9c-.7.4-1.1,1.2-1.1,2v5.2M481.6,566.9l-39.4,22.9c-.7.4-1.1,1.2-1.1,2v5.2M497.9,576.3l-39.4,22.9c-.7.4-1.1,1.1-1.1,2v5.2M514.2,585.7l-39.4,22.9c-.7.4-1.1,1.2-1.1,2v5.2"/>
  <path class="st11" d="M516.8,592.6c1.2.7,1.2,1.9,0,2.6l-26.8,15.6c-1.2.7-3.2.7-4.5,0l-178.9-103.3c-1.2-.7-1.2-1.9,0-2.6l26.8-15.6c1.2-.7,3.2-.7,4.5,0l178.9,103.3Z"/>
  <path class="st23" d="M306.6,506.1l26.8-15.6c1.2-.7,3.2-.7,4.5,0l178.9,103.3c.3.2.6.4.7.7.4-.6.2-1.4-.7-1.9l-178.9-103.3c-1.2-.7-3.2-.7-4.5,0l-26.8,15.6c-.9.5-1.1,1.2-.7,1.9.1-.2.4-.5.7-.7"/>
  <path class="st7" d="M412.5,521.4v24l.8.5v-24l-.8-.5ZM413.3,545.9l.7-.4v-24l-.6.4v24h-.1ZM413.4,521.8l.7-.4-.8-.5-.7.4.8.5Z"/>
  <path class="st11" d="M411.2,528.5v8.3l3.4,2v-8.3l-3.4-2Z"/>
  <path class="st4" d="M414.6,538.8l.7-.4v-8.3l-.7.4v8.3Z"/>
  <path class="st4" d="M414.6,530.5l.7-.4-3.4-2-.7.4,3.5,2h-.1Z"/>
  <path class="st7" d="M429.6,531.2v24l.8.5v-24l-.8-.5Z"/>
  <path class="st7" d="M430.4,555.7l.7-.4v-24l-.6.4v24h-.1Z"/>
  <path class="st7" d="M430.4,531.7l.7-.4-.8-.5-.7.4.9.5h-.1Z"/>
  <path class="st9" d="M428.3,534v12.7l3.4,2v-12.7l-3.4-2Z"/>
  <path class="st4" d="M431.7,548.6l.7-.4v-12.7l-.7.4v12.7Z"/>
  <path class="st4" d="M431.7,535.9l.7-.4-3.5-2-.7.4,3.4,2h.1Z"/>
  <path class="st7" d="M446.7,541v24l.8.5v-24l-.8-.5ZM447.5,565.5l.7-.4v-24l-.6.4v24h-.1Z"/>
  <path class="st7" d="M447.6,541.5l.7-.4-.8-.5-.7.4.9.5h-.1Z"/>
  <path class="st11" d="M445.4,548v12.3l3.4,2v-12.3l-3.4-2Z"/>
  <path class="st4" d="M448.8,562.2l.7-.4v-12.3l-.7.4v12.3Z"/>
  <path class="st4" d="M448.8,550l.7-.4-3.4-2-.7.4,3.4,2Z"/>
  <path class="st7" d="M377.8,497.2v24l.8.5v-24l-.8-.5ZM378.6,521.7l.7-.4v-24l-.6.4v24h-.1ZM378.7,497.6l.7-.4-.8-.5-.7.4.8.5Z"/>
  <path class="st9" d="M376.5,499.9v12.7l3.4,2v-12.7l-3.4-2Z"/>
  <path class="st4" d="M379.9,514.6l.7-.4v-12.7l-.7.4v12.7Z"/>
  <path class="st4" d="M380,501.9l.7-.4-3.5-2-.7.4,3.4,2h.1Z"/>
  <path class="st7" d="M395,507v24l.8.5v-24l-.8-.5Z"/>
  <path class="st7" d="M395.7,531.5l.7-.4v-24l-.6.4v24h-.1Z"/>
  <path class="st7" d="M395.8,507.5l.7-.4-.8-.5-.7.4.8.5Z"/>
  <path class="st11" d="M393.6,513.9v12.3l3.4,2v-12.3l-3.4-2Z"/>
  <path class="st4" d="M397,528.2l.7-.4v-12.3l-.7.4v12.3Z"/>
  <path class="st4" d="M397.1,515.9l.7-.4-3.4-2-.7.4,3.4,2Z"/>
  <path class="st7" d="M345.2,460.7c1.7,0,3.1-1.4,3.1-3.1s-1.4-3.1-3.1-3.1-3.1,1.4-3.1,3.1,1.4,3.1,3.1,3.1"/>
  <path class="st7" d="M349.3,453.4c1.7,1,1.7,2.6,0,3.5l-3.4,2c-1.7,1-4.4,1-6.1,0s-1.7-2.6,0-3.5l3.4-2c1.7-1,4.4-1,6.1,0"/>
  <path class="st4" d="M341.7,500.4v14.6c0,.3-.2.6-.6.9-.8.5-2.2.5-3.1,0-.4-.2-.6-.6-.6-.9v-14.6c0,.3.2.6.6.9.9.5,2.2.5,3.1,0,.4-.2.6-.6.6-.9"/>
  <path class="st7" d="M341.1,499.5c.9.5.9,1.3,0,1.8s-2.2.5-3.1,0c-.8-.5-.8-1.3,0-1.8s2.2-.5,3.1,0"/>
  <path class="st7" d="M340.6,450.1v50.2c0,.2-.1.3-.3.4-.4.2-1.1.2-1.5,0-.2-.1-.3-.3-.3-.4v-50.2c0,.2.1.3.3.4.4.2,1.1.2,1.5,0,.2-.1.3-.3.3-.4"/>
  <path class="st7" d="M340.3,449.6c.4.2.4.6,0,.9s-1.1.2-1.5,0-.4-.6,0-.9c.4-.2,1.1-.2,1.5,0"/>
  <path class="st7" d="M340.7,440.1l-9.7,9.1,8.5,4.9,9.7-9.1-8.5-4.9Z"/>
  <path class="st7" d="M339.4,454.1v.4c.1,0,9.8-9.1,9.8-9.1v-.4c-.1,0-9.8,9.1-9.8,9.1"/>
  <path class="st7" d="M331,449.2v.4c.1,0,8.6,4.9,8.6,4.9v-.4c-.1,0-8.6-4.9-8.6-4.9"/>
  <path class="st10" d="M346.2,447.6l-8.4-4.8M343,450.6l-8.4-4.8M346.6,443.5l-9.7,9.1M343.1,441.7l-9.6,9M344.2,457.7l4-2.3c.3-.2.2-.6,0-.7l-2-.8"/>
  <path class="st7" d="M482.3,539.5c1.7,0,3.1-1.4,3.1-3.1s-1.4-3.1-3.1-3.1-3.1,1.4-3.1,3.1,1.4,3.1,3.1,3.1"/>
  <path class="st7" d="M486.4,532.3c1.7,1,1.7,2.6,0,3.5l-3.4,2c-1.7,1-4.4,1-6.1,0s-1.7-2.6,0-3.5l3.4-2c1.7-1,4.4-1,6.1,0"/>
  <path class="st4" d="M478.8,579.3v14.6c0,.3-.2.6-.6.9-.8.5-2.2.5-3.1,0-.4-.2-.6-.6-.6-.9v-14.6c0,.3.2.7.6.9.9.5,2.2.5,3.1,0,.4-.2.6-.6.6-.9"/>
  <path class="st7" d="M478.2,578.4c.9.5.9,1.3,0,1.8s-2.2.5-3.1,0-.9-1.3,0-1.8c.8-.5,2.2-.5,3.1,0"/>
  <path class="st7" d="M477.7,528.9v50.2c0,.2-.1.3-.3.4-.4.2-1.1.2-1.5,0-.2,0-.3-.3-.3-.4v-50.2c0,.2.1.3.3.4.4.2,1.1.2,1.5,0s.3-.3.3-.4"/>
  <path class="st7" d="M477.4,528.5c.4.2.4.6,0,.9-.4.2-1.1.2-1.5,0s-.4-.6,0-.9c.4-.2,1.1-.2,1.5,0"/>
  <path class="st7" d="M477.8,519l-9.7,9.1,8.5,4.9,9.7-9.1-8.5-4.9ZM476.6,533v.4c.1,0,9.8-9.1,9.8-9.1v-.4c-.1,0-9.8,9.1-9.8,9.1"/>
  <path class="st7" d="M468.1,528.1v.4c.1,0,8.6,4.9,8.6,4.9v-.4c-.1,0-8.6-4.9-8.6-4.9"/>
  <path class="st10" d="M483.4,526.5l-8.4-4.8M480.1,529.5l-8.4-4.8M483.7,522.4l-9.7,9.1M480.3,520.6l-9.6,9M481.4,536.6l4-2.3c.3-.2.2-.6,0-.7l-2-.8"/>
  <path class="st7" d="M406.2,496.1c1.7,0,3.1-1.4,3.1-3.1s-1.4-3.1-3.1-3.1-3.1,1.4-3.1,3.1,1.4,3.1,3.1,3.1"/>
  <path class="st7" d="M410.3,488.8c1.7,1,1.7,2.6,0,3.6l-3.4,2c-1.7,1-4.4,1-6.1,0s-1.7-2.6,0-3.6l3.4-2c1.7-1,4.4-1,6.1,0"/>
  <path class="st4" d="M402.7,535.8v14.6c0,.3-.2.6-.6.9-.8.5-2.2.5-3.1,0-.4-.2-.6-.6-.6-.9v-14.6c0,.3.2.7.6.9.9.5,2.2.5,3.1,0,.4-.2.6-.6.6-.9"/>
  <path class="st7" d="M402.1,535c.9.5.9,1.3,0,1.8s-2.2.5-3.1,0-.9-1.3,0-1.8,2.2-.5,3.1,0"/>
  <path class="st7" d="M401.6,485.5v50.2c0,.2-.1.3-.3.4-.4.2-1.1.2-1.5,0-.2,0-.3-.3-.3-.4v-50.2c0,.2.1.3.3.4.4.2,1.1.2,1.5,0s.3-.3.3-.4"/>
  <path class="st7" d="M401.3,485c.4.2.4.6,0,.9-.4.2-1.1.2-1.5,0s-.4-.6,0-.9c.4-.2,1.1-.2,1.5,0"/>
  <path class="st7" d="M401.7,475.5l-9.7,9.1,8.5,4.9,9.7-9.1-8.5-4.9ZM400.5,489.5v.4c.1,0,9.8-9.1,9.8-9.1v-.4c-.1,0-9.8,9.1-9.8,9.1"/>
  <path class="st7" d="M392,484.6v.4c.1,0,8.6,4.9,8.6,4.9v-.4c-.1,0-8.6-4.9-8.6-4.9"/>
  <path class="st10" d="M407.3,483l-8.4-4.8M404,486l-8.4-4.8M407.6,478.9l-9.7,9.1M404.2,477.1l-9.6,9M405.3,493.1l4-2.3c.3-.2.2-.6,0-.7l-2-.8"/>
  <path class="st7" d="M454.4,573.3l-8.4,4.8-8.6-4.9,8.4-4.8,8.6,4.9Z"/>
  <path class="st7" d="M447.8,564.3c0-1-.8-1.9-1.9-1.9s-1.9.8-1.9,1.9v8.8c0,1,.8,1.9,1.9,1.9s1.9-.8,1.9-1.9v-8.8Z"/>
  <path class="st23" d="M447.8,570.4l-.5.3c-1,.7-2.1.9-3.3.7v-2.3h3.7v1.3h0Z"/>
  <path class="st11" d="M456.7,553.3c3,7.5-2,16-10,16.5h-1.7c-8-.5-13-9-10-16.5l4.6-11.4c2.3-5.7,10.3-5.7,12.6,0l4.6,11.4h-.1Z"/>
  <path class="st10" d="M442.5,551.4s2-.7,2.4,1.4c0,0,1.2-.4,1.8.9M445.1,547.3s.8-2,2.7-.8c0,0,.5-1.2,1.8-.7M445.1,560.6s1.5-1.6,2.8.2c0,0,.8-.9,2,0"/>
  <path class="st7" d="M371.2,527.6l-8.4,4.8-8.6-4.9,8.4-4.8,8.6,4.9Z"/>
  <path class="st7" d="M364.5,518.7c0-1-.8-1.9-1.9-1.9s-1.9.8-1.9,1.9v8.8c0,1,.8,1.9,1.9,1.9s1.9-.8,1.9-1.9v-8.8Z"/>
  <path class="st23" d="M364.5,524.7l-.5.3c-1,.7-2.1.9-3.3.7v-2.3h3.7v1.3h0Z"/>
  <path class="st11" d="M373.5,507.7c3,7.5-2,16-10,16.5h-1.8c-8-.5-13-9-10-16.5l4.6-11.4c2.3-5.7,10.3-5.7,12.6,0l4.6,11.4Z"/>
  <path class="st10" d="M359.4,505.8s2-.7,2.4,1.4c0,0,1.2-.4,1.8.9M360.4,500.3s.8-2,2.7-.8c0,0,.5-1.2,1.9-.7M361.9,514.9s1.5-1.6,2.8.2c0,0,.8-.9,2,0"/>
  <path class="st6" d="M531.2,439.6l.5,4.1"/>
  <path class="st7" d="M677.3,608.2l6.9-4-4-3.4-2.9,2.9v4.5ZM707.7,625.4l6.9-4-4-3.4-2.9,2.9v4.4h0Z"/>
  <path class="st23" d="M682.8,606.4c2.4,1.4,4.4,4.8,4.4,7.6s-2,3.9-4.4,2.5-4.4-4.8-4.4-7.6,2-3.9,4.4-2.5"/>
  <path class="st23" d="M681.2,605.2c.8-.5,1.9-.4,3.1.3,2.4,1.4,4.4,4.8,4.4,7.6s-.5,2.5-1.4,2.9l-1.6,1-6-10.9,1.5-.9Z"/>
  <path class="st7" d="M682.8,608.5c1.4.8,2.6,2.8,2.6,4.5s-1.2,2.3-2.6,1.5-2.6-2.8-2.6-4.5,1.2-2.3,2.6-1.5"/>
  <path class="st23" d="M713.2,623c2.4,1.4,4.4,4.8,4.4,7.6s-2,3.9-4.4,2.5-4.4-4.8-4.4-7.6,2-3.9,4.4-2.5"/>
  <path class="st23" d="M711.5,621.7c.8-.5,1.9-.4,3.1.3,2.4,1.4,4.4,4.8,4.4,7.6s-.5,2.5-1.4,2.9l-1.6,1-6-10.9,1.5-.9Z"/>
  <path class="st7" d="M713.1,625.1c1.4.8,2.6,2.8,2.6,4.5s-1.2,2.3-2.6,1.5-2.6-2.8-2.6-4.5,1.2-2.3,2.6-1.5"/>
  <path class="st7" d="M676.7,602.2v-7l6-5.8s0-1.3,0-1.5c.3-.2,10.7-6.2,11.6-6.6s2.2-.9,3.3-.9h2.3c.3,0,2.5,1.3,3.5,1.9s13.3,7.3,15.2,8.6,6.6,5.9,8,7.6,3.3,3.4,3.3,3.4c0,0,10.1,6,11,7.4s1.8,3,1.8,3c0,0,.9.9.9,1.1v9.5c0,.7-1,2.5-4.3,4.3s-9.6,5.2-10.4,5.5-.7.7-2.3.8c-1.6.2-4.4.7-6.3.2s-1.6-5.3-3.1-8.9c-1.1-2.8-6.7-5.5-7.8-4.2-1,1.2-1.7,1.7-.7,6.9l-20.9-11.7s-1.9-8-2.7-9-4.3-3.3-5.2-3.3-2.5,2.1-1.5,6.9l-.5-.2s-1.8-2.9-1.8-4v-3.8h.4c0,0,.1-.2.1-.2Z"/>
  <path class="st23" d="M683.7,593.6s-1.6,1.2-1.6,1.5,1,1.8,2.7,3.1c1.8,1.3,23.9,14.5,23.9,14.5,0,0-5-10.3-5.8-11.4-.7-1.2-15.7-9.5-16.1-9.8s-1.8,1.1-3.1,2.1M710,612.4s12-3.1,20.1-10.4c0,0-1.9-1.8-3.3-3.4-1-1.1-3.6-3.8-5.7-5.7-6.8,6.1-16.5,8.8-16.5,8.8l5.4,10.7Z"/>
  <path class="st10" d="M695.5,606.5s-.8,1-.8,2.4v6.9M685.2,600.1s-.8,1-.8,2.4v2.6M710.7,613.2l9.3,6.1M742.9,612.4c-.3,2.1-.9,3.4-.9,3.4l-.9-.8-12.1,7c-1.2,1.6-1.7,1.7-1.7,1.7-1.9.4-6.8-.5-6.8-.5l-2.2-3.3s2.4.8,5.6,1,5.5,0,5.5,0l11.3-6.6v-1.2c0-.6.5-2.3.4-3.6l1.8,3h0ZM727.1,633.6l3.4-5.4,11.5-6.6,1.7,1.4"/>
  <path class="st23" d="M730.1,622l-1.7,2.5,2.1,1.9s5.1-2.1,10.6-5.7c0,0,1-1.4,1-2.5s-.9-2.4-1.1-2.4-10.9,6.2-10.9,6.2M723.1,626.2l-1,4.6s3.1-.6,3.5-.8,1.9-1.9,1.9-2.4-1.7-1.6-2-1.6-2.3,0-2.3,0h-.1ZM743.8,614.4s-1,3.5-1.4,4.7c0,0,.2,1,.6,1s.8-.5.8-.5"/>
  <path class="st9" d="M677.3,594.6s.8,1.3,2.8,2.8l-.2.7s-2-.4-3.2-1.5v-1.4l.7-.6h0Z"/>
  <path class="st7" d="M684.8,588.4l19.4,11.7s8.2-3.5,14.4-8.1l-18.5-10.6s-2.4-.2-3.4,0c-1,0-12,7-12,7h0Z"/>
  <path class="st10" d="M695.1,597.1v6.2M690.5,614.3l15.9,8.9"/>
  <path class="st23" d="M714.3,590.9c.7.4.7,1,0,1.4l-8.5,5c-.7.4-1.8.4-2.4,0l-13.1-7.6c-.7-.4-.7-1,0-1.4l8.5-5c.7-.4,1.8-.4,2.4,0l13.1,7.6Z"/>
  <path class="st7" d="M766.2,447c1.5.8,1.5,2.2,0,3.2l-5.7,3.3c-1.9,1.1-4.9,1.1-6.7,0l-5.8-3.3c-1.5-.9-1.5-2.2,0-3.2l5.7-3.3c1.8-1.1,4.9-1.1,6.7,0l5.8,3.3Z"/>
  <path class="st11" d="M755.8,378v10.7l-18.5-10.6-3.2-7.2,3.2-3.5,18.4,10.6h0Z"/>
  <path class="st4" d="M737.3,367.3l1.4-.8,18.4,10.7-1.4.8-18.4-10.6h0Z"/>
  <path class="st11" d="M758.6,389.5v10.7l18.5-10.6,3.2-7.2-3.2-3.5-18.4,10.6h0Z"/>
  <path class="st4" d="M777,378.8l-1.4-.8-18.4,10.7,1.4.8,18.4-10.6h0Z"/>
  <path class="st7" d="M755.2,448.2c0,.3.2.6.6.8.8.4,2,.4,2.7,0,.4-.2.6-.5.6-.8v-79.8h-3.9v79.8Z"/>
  <path class="st7" d="M758.5,367.7c.8.4.8,1.1,0,1.6-.8.4-2,.4-2.7,0-.8-.4-.8-1.1,0-1.6.8-.4,2-.4,2.7,0"/>
  <path class="st10" d="M759.1,383.6c0,.3-.2.6-.6.8-.8.4-2,.4-2.7,0-.4-.2-.6-.5-.6-.8M759.1,406.2c0,.3-.2.6-.6.8-.8.4-2,.4-2.7,0s-.6-.5-.6-.8M759.1,428.9c0,.3-.2.6-.6.8-.8.4-2,.4-2.7,0s-.6-.5-.6-.8"/>
  <path class="st23" d="M740.9,372.9v3.5l-.5-.3v-2.7l-.8,2.2-.4-.2-.8-3.2v2.7l-.5-.3v-3.5l.8.4.8,3.1.8-2.2.7.4h0ZM746.6,376.1l-1.1,1.4v1.4l-.5-.3v-1.5l-1.1-2.7.6.3.8,1.9.8-1,.6.3v.2ZM743,374.1l1.2,4.2-.6-.3-.3-1-1.3-.8-.3.6-.5-.3,1.2-2.8.6.3h0ZM742.2,375.8l1,.5-.5-1.7-.5,1.2ZM748.7,377.3c.5.3.9.8,1.1,1.3l-.4.2c-.2-.4-.4-.7-.8-.9-.3-.2-.6-.1-.6.2s.2.5.6.8c.5.4,1.1.9,1.1,1.7s-.5.8-1.2.4c-.5-.3-1-.9-1.3-1.5l.4-.2c.2.5.5.9.9,1.1.3.2.6.2.6-.2s-.3-.6-.8-1-.9-.8-.9-1.5.5-.8,1.1-.4h.2ZM752.9,382.6v.7l-.6-.4v-.7l.6.4ZM752.5,379.5v.5l-1-.6v3l-.5-.3v-3l-1-.6v-.6l2.5,1.4v.2ZM763.6,392.2l.6-.3v.5l-.6.3v.9l-.5.3v-.9l-1.4.8v-.5l1.2-2.9.7-.4v2.1h0ZM763.1,392.5v-1.5l-.9,2,.9-.5ZM766.8,388.2v.5l-1,.6v3l-.5.3v-3l-1,.6v-.5l2.5-1.4h0ZM769.7,386.6v3.5l-.5.3v-1.5l-1.5.8v1.5l-.5.3v-3.5l.5-.3v1.4l1.5-.8v-1.4l.5-.3ZM772.1,385.1c.5-.3.9-.2,1.1,0l-.4.6c-.2-.2-.4-.3-.8,0-.3.2-.5.5-.5.8s.2.2.7.1c.5-.2,1.1-.4,1.1.4s-.5,1.4-1.1,1.8c-.5.3-1,.3-1.3,0l.4-.6c.2.3.5.3.9.1s.6-.5.6-.9c0-.6-.3-.2-.8,0-.5.1-1,.3-1-.4s.5-1.3,1.1-1.7v-.2ZM775.8,383v.5l-1,.6v3l-.5.3v-3l-1,.6v-.5l2.5-1.4h0ZM776.2,385.6v.7l-.6.4v-.7l.6-.4Z"/>
  <path class="st7" d="M692.3,514.4c1.5.9,1.5,2.2,0,3.2l-5.7,3.3c-1.9,1.1-4.9,1.1-6.7,0l-5.8-3.3c-1.5-.9-1.5-2.2,0-3.2l5.7-3.3c1.8-1.1,4.9-1.1,6.7,0l5.8,3.3ZM722.9,513.6c1.5.9,1.5,2.2,0,3.2l-5.7,3.3c-1.9,1.1-4.9,1.1-6.7,0l-5.8-3.3c-1.5-.9-1.5-2.2,0-3.2l5.7-3.3c1.8-1.1,4.9-1.1,6.7,0l5.8,3.3ZM709.7,534.7c1.5.8,1.5,2.2,0,3.2l-5.7,3.3c-1.9,1.1-4.9,1.1-6.7,0l-5.8-3.3c-1.5-.8-1.5-2.2,0-3.2l5.7-3.3c1.8-1.1,4.9-1.1,6.7,0l5.8,3.3ZM673.7,544.4c1.5.9,1.5,2.2,0,3.2l-5.7,3.3c-1.9,1.1-4.9,1.1-6.7,0l-5.8-3.3c-1.5-.9-1.5-2.2,0-3.2l5.7-3.3c1.8-1.1,4.9-1.1,6.7,0l5.8,3.3ZM718.8,556.3c1.5.8,1.5,2.2,0,3.2l-5.7,3.3c-1.9,1.1-4.9,1.1-6.7,0l-5.8-3.3c-1.5-.8-1.5-2.2,0-3.2l5.7-3.3c1.8-1.1,4.9-1.1,6.7,0l5.8,3.3Z"/>
  <path class="st1" d="M717.8,373.9v56.6c0,0-193.8,112.2-193.8,112.2v-56.7c0,0,193.8-112.2,193.8-112.2h0Z"/>
  <path class="st1" d="M707.5,391.1v12.2l6.2-3.5v-12.2l-6.2,3.5ZM695.1,398.3v12.2l6.2-3.6v-12.2l-6.2,3.5h0ZM682.8,405.5v12.2l6.2-3.5v-12.2l-6.2,3.5ZM670.5,412.7v12.2l6.2-3.6v-12.2l-6.2,3.5h0ZM707.5,417.8v12.2l6.2-3.5v-12.2l-6.2,3.5ZM696,424.6v12.2l6.2-3.5v-12.2l-6.2,3.6h0Z"/>
  <path class="st11" d="M524.1,486.1v56.7c0,0-62.1-35.8-62.1-35.8v-56.6c.1,0,62.1,35.8,62.1,35.8h0Z"/>
  <path class="st1" d="M522.8,478.2l200-115.9-64.5-37.2-200,115.9,64.5,37.2Z"/>
  <path class="st1" d="M522.8,472.5l190-110.4-55.5-32-190,110.4,55.5,32Z"/>
  <path class="st14" d="M657.4,333.4l52.6,30.4,2.8-1.6-55.5-32-190,110.4,2.8,1.6,187.2-108.7h.1Z"/>
  <path class="st1" d="M722.8,362.3l-200,115.9h0l-2.6-1.5,3.4,12.4,194.2-110.9c1.5-.8,2.5-2.2,2.8-3.9.6-3.8,2.5-6.8,2.2-12M719.7,461.6v11.8l-6.8,3.9v-11.8l6.8-3.9Z"/>
  <path class="st11" d="M712.9,477.4l-37.1-20.6v-11.8l37,20.5v11.8h0Z"/>
  <path class="st1" d="M682.8,440.9l-7,4,37.1,20.5,6.8-3.9-36.9-20.7h0Z"/>
  <path class="st14" d="M460.8,476.5v5.5l63.3,36.6v-5.5l-63.3-36.6Z"/>
  <path class="st11" d="M524.1,513v5.5h0l194.6-112.8v-5.5l-194.6,112.8Z"/>
  <path class="st1" d="M460.8,476.5l1.3-.8v.8l62,35.8v.8l-63.3-36.6ZM524.1,512.2l193.6-112.1v-.6l1,.8-194.6,112.8v-.8h0ZM712.9,474.8l-3-1.8-84.3,49.2,3,1.8,84.3-49.2Z"/>
  <path class="st11" d="M625.6,519.7l84.3-49.2v2.5l-84.3,49.2v-2.5ZM628.6,524l84.3-49.2v2.5l-84.3,49.2v-2.5Z"/>
  <path class="st1" d="M709.9,470.5l-3-1.8-84.3,49.2,3,1.8,84.3-49.2Z"/>
  <path class="st11" d="M622.6,515.4l84.3-49.2v2.5l-84.3,49.2v-2.5Z"/>
  <path class="st1" d="M680.9,451.8l25.9,14.4-84.3,49.2-25.8-14.8,84.2-48.8Z"/>
  <path class="st11" d="M619.5,511.1l84.3-49.2v2.5l-84.3,49.2v-2.5Z"/>
  <path class="st1" d="M677.9,447.5l25.9,14.4-84.3,49.2-25.8-14.8,84.2-48.8ZM628.6,514v12.5l-7.4,4.3v-12.5l7.4-4.3Z"/>
  <path class="st11" d="M621.2,530.8l-39.1-21.7v-12.5l39.1,21.7v12.5Z"/>
  <path class="st1" d="M621.2,518.3l-39.1-21.7,7.6-4.4,38.9,21.8-7.4,4.3Z"/>
  <path class="st11" d="M605,500.4v1.6c0,.5-.4,1.1-1.1,1.5-1.5.8-3.8.8-5.3,0-.7-.4-1.1-1-1.1-1.5v-1.6c0,.6.4,1.1,1.1,1.6,1.5.8,3.8.8,5.3,0,.7-.4,1.1-1,1.1-1.5h0Z"/>
  <path class="st1" d="M604,498.8c1.5.8,1.5,2.2,0,3.1-1.4.8-3.8.8-5.3,0-1.5-.9-1.5-2.2,0-3.1s3.8-.9,5.3,0"/>
  <path class="st11" d="M592.8,494.3v1.6c0,.5-.4,1.1-1.1,1.5-1.5.9-3.8.9-5.3,0-.7-.4-1.1-1-1.1-1.5v-1.6c0,.6.4,1.1,1.1,1.5,1.5.9,3.8.9,5.3,0,.7-.4,1.1-1,1.1-1.5"/>
  <path class="st1" d="M591.7,492.8c1.5.9,1.5,2.2,0,3.1-1.4.9-3.8.9-5.3,0-1.5-.8-1.5-2.2,0-3.1,1.5-.8,3.8-.8,5.3,0"/>
  <path class="st1" d="M586.7,493.8c0,.3.2.7.7.9.9.5,2.3.5,3.2,0,.4-.3.7-.6.7-.9v-26.7h-4.5v26.7h-.1ZM599,499.8c0,.3.2.7.7.9.9.5,2.3.5,3.2,0,.4-.3.7-.6.7-.9v-29.6h-4.5v29.6h-.1Z"/>
  <path class="st11" d="M701.3,450.5v1.6c0,.5-.4,1.1-1.1,1.5-1.5.9-3.8.9-5.3,0-.7-.4-1.1-1-1.1-1.6v-1.6c0,.6.4,1.1,1.1,1.5,1.5.9,3.8.9,5.3,0,.7-.4,1.1-1,1.1-1.5h0Z"/>
  <path class="st1" d="M700.2,449c1.5.9,1.5,2.2,0,3.1-1.4.9-3.8.9-5.3,0s-1.5-2.2,0-3.1c1.5-.8,3.8-.8,5.3,0"/>
  <path class="st11" d="M689.1,444.5v1.6c0,.5-.4,1.1-1.1,1.5-1.5.9-3.8.9-5.3,0-.7-.4-1.1-1-1.1-1.5v-1.6c0,.6.4,1.1,1.1,1.6,1.5.8,3.8.8,5.3,0,.7-.4,1.1-1,1.1-1.5h0Z"/>
  <path class="st1" d="M688,442.9c1.5.9,1.5,2.2,0,3.1-1.5.8-3.8.8-5.3,0-1.5-.9-1.5-2.2,0-3.1s3.8-.9,5.3,0"/>
  <path class="st1" d="M682.9,444c0,.3.2.7.7.9.9.5,2.3.5,3.2,0,.4-.3.7-.6.7-.9v-26.7h-4.5v26.6h0ZM695.3,450c0,.3.2.7.7.9.9.5,2.3.5,3.2,0,.4-.3.7-.6.7-.9v-29.6h-4.5v29.6h-.1ZM619.8,491.6l-5.6,3.3-5.7-3.3,5.6-3.3,5.7,3.3Z"/>
  <path class="st1" d="M619.8,491.6v2.3l-5.6,3.3v-2.3l5.6-3.3Z"/>
  <path class="st11" d="M614.2,494.9v2.3l-5.7-3.3v-2.3l5.7,3.3Z"/>
  <path class="st1" d="M611.8,491.4c0,.3.2.7.7.9.9.5,2.3.5,3.2,0,.4-.3.7-.6.7-.9v-33.5h-4.5v33.5h-.1ZM635.7,482.3l-5.6,3.3-5.7-3.3,5.6-3.3,5.7,3.3Z"/>
  <path class="st1" d="M635.7,482.3v2.3l-5.6,3.3v-2.3l5.6-3.3Z"/>
  <path class="st11" d="M630.1,485.6v2.3l-5.7-3.3v-2.3l5.7,3.3Z"/>
  <path class="st1" d="M627.8,482.1c0,.3.2.7.7.9.9.5,2.3.5,3.2,0,.4-.3.7-.6.7-.9v-33.5h-4.5v33.5h-.1ZM651.6,473.1l-5.6,3.3-5.7-3.3,5.6-3.3,5.7,3.3Z"/>
  <path class="st1" d="M651.6,473.1v2.3l-5.6,3.3v-2.3l5.6-3.3Z"/>
  <path class="st11" d="M646,476.3v2.3l-5.7-3.3v-2.3l5.7,3.3Z"/>
  <path class="st1" d="M643.7,472.9c0,.3.2.7.7.9.9.5,2.3.5,3.2,0,.4-.3.7-.6.7-.9v-33.5h-4.5v33.5h-.1ZM667.5,463.8l-5.6,3.3-5.6-3.3,5.6-3.3,5.7,3.3h-.1Z"/>
  <path class="st1" d="M667.5,463.8v2.3l-5.6,3.3v-2.3l5.6-3.3Z"/>
  <path class="st11" d="M661.9,467.1v2.3l-5.7-3.3v-2.3l5.7,3.3Z"/>
  <path class="st1" d="M659.6,463.6c0,.3.2.7.7.9.9.5,2.3.5,3.2,0,.4-.3.7-.6.7-.9v-33.5h-4.5v33.5h-.1ZM683.5,454.5l-5.6,3.3-5.6-3.3,5.6-3.3,5.6,3.3Z"/>
  <path class="st1" d="M683.5,454.5v2.3l-5.6,3.3v-2.3l5.6-3.3Z"/>
  <path class="st11" d="M677.9,457.8v2.3l-5.7-3.3v-2.3l5.7,3.3Z"/>
  <path class="st1" d="M675.5,454.3c0,.3.2.7.7.9.9.5,2.3.5,3.2,0,.4-.3.7-.6.7-.9v-33.5h-4.5v33.5h-.1Z"/>
  <path class="st14" d="M706,414.1l-64.5-37.5-49.3,5.4,62.4,36.2,51.4-4.2h0Z"/>
  <path class="st1" d="M597.3,477l108.7-62.9-51.4,4.2-57.3,58.7Z"/>
  <path class="st1" d="M616.1,462.9l78.7-44.6c.2-.1,0-.4,0-.4l-36.5,3.1c-1,0-2,.5-2.8,1.3l-39.5,40.3c-.2.2,0,.4.2.3"/>
  <path class="st11" d="M654.6,418.3l-62.4-36.2-59.2,57.5,23.2,13.5,5.6-3.3,7.5,4.4.2,6.6,27.7,16.2,57.3-58.7h.1Z"/>
  <path class="st1" d="M706,414.1l-108.7,62.9v3.8l108.7-62.9v-3.8ZM597.3,477l-27.7-16.2.2,4,27.5,16v-3.8Z"/>
  <path class="st1" d="M572.6,466.4l-4.2,2.4v12.2l6.2-3.5v-9.9l-2-1.2ZM556.1,476v12.2l6.2-3.5v-12.2l-6.2,3.5ZM543.8,483.2v12.2l6.2-3.5v-12.2l-6.2,3.5ZM531.4,490.3v12.2l6.2-3.5v-12.2l-6.2,3.5ZM568.4,495.5v12.2l6.2-3.5v-12.2l-6.2,3.5ZM556.1,502.7v12.2l6.2-3.5v-12.2l-6.2,3.5ZM543.8,509.8v12.2l6.2-3.5v-12.2l-6.2,3.5ZM531.4,517v12.2l6.2-3.5v-12.2l-6.2,3.5ZM670.2,361.4c1,.6,1,1.5,0,2.2l-3.9,2.3c-1.3.7-3.4.7-4.6,0l-4-2.3c-1-.6-1-1.5,0-2.2l3.9-2.3c1.2-.7,3.4-.7,4.6,0l4,2.3Z"/>
  <path class="st25" d="M664.4,360.6v1.9s0,.2-.2.3c-.3.1-.6.1-1,0,0,0-.2-.1-.2-.3v-1.9s0,.2.2.3c.3.1.7.1,1,0,.2,0,.2-.1.2-.3"/>
  <path class="st11" d="M663.7,351.3c1.3,0,2.9,3.8,2.9,6.7s-.6,3.8-2.9,3.8-2.9-1.8-2.9-3.8c0-2.9,1.6-6.7,2.9-6.7"/>
  <path class="st1" d="M516.3,447.9c1,.6,1,1.5,0,2.2l-3.9,2.3c-1.3.7-3.4.7-4.6,0l-4-2.3c-1-.6-1-1.5,0-2.2l3.9-2.3c1.2-.7,3.4-.7,4.6,0l4,2.3Z"/>
  <path class="st25" d="M510.5,447.1v1.9s0,.2-.2.3c-.3.1-.7.1-1,0-.1,0-.2-.1-.2-.3v-1.9s0,.2.2.3c.3.1.7.1,1,0,.1,0,.2-.1.2-.3"/>
  <path class="st11" d="M509.8,437.8c1.3,0,2.9,3.8,2.9,6.7s-.6,3.8-2.9,3.8-2.9-1.8-2.9-3.8c0-2.9,1.6-6.7,2.9-6.7"/>
  <path class="st4" d="M660.4,425.3c-.6-.4-1.6-.3-2.6.3-2,1.1-3.6,3.9-3.6,6.2s.4,1.9,1,2.3l.6.4c-.6-.4-1-1.2-1-2.3,0-2.3,1.6-5.1,3.6-6.2,1-.6,1.9-.6,2.6-.3l-.6-.4Z"/>
  <path class="st7" d="M658.5,426c2-1.1,3.6-.2,3.6,2s-1.6,5.1-3.6,6.2-3.6.2-3.6-2,1.6-5.1,3.6-6.2"/>
  <path class="st23" d="M660.9,426.8l.3-.2-1,4.5c0,.2-.2.5-.4.6l-.4.2-.7-2.4-.7,3.2-.4.2c-.2.1-.4,0-.4-.1l-1-3.4.3-.2c.3-.2.6-.1.7.2l.5,1.9.6-3.2.7-.4.7,2.5.5-2.5c0-.4.4-.8.7-1h0Z"/>
  <path class="st23" d="M659.6,430.3v-.2l-.6-2.2.7,2.4h-.1ZM651.9,429.5c0,0,.2.2,0,.5v.2c.2-.3.3-.5.5-.8h0c-.2.5-.4.8-.6,1.1h0c0-.1,0-.2,0-.2,0,0,.3-.1.4,0,0,.2-.2.4-.4.6h-.4c-.2.3-.3.7-.4,1,0,0,0-.2.2-.3s.3-.2.4-.3c0,0,.2-.1.3-.1,0,.3-.2.6-.5.9l-.3.3h-.2c0,.5-.2.9-.2,1.4,0-.1,0-.2.2-.3.2-.3.4-.5.6-.7,0,.3-.1.6-.3.9-.2.3-.4.5-.5.6,0,.5,0,.9.2,1.3v-.6c0-.4.3-.8.5-1,.1.2.1.5,0,.9,0,.4-.3.7-.5.9.2.4.5.8.9,1v-.3c0-.4,0-.7.3-1,.2,0,.3.3.3.6s0,.5-.2.8c.2,0,.5.1.8,0h0c-.1-.3-.1-.6,0-.9.2,0,.4,0,.6.2,0,.2,0,.4,0,.6.4,0,.8-.3,1.3-.5.2-.1.3-.2.5-.3,0,0,0,0,.2-.1v.2h0c-.2.2-.4.4-.6.5-.3.2-.6.3-.9.4,0,.2-.2.4-.3.6,0,.1-.2.2-.4.3h-.2c0-.2.2-.5.4-.7h0-1c-.2.2-.4.5-.6.7-.3.1-.5.2-.7.1,0-.3.4-.6.7-.8h.2c-.4,0-.7-.3-.9-.6-.3-.5-.2.1-.3.2,0,0-.3.1-.4.1-.3,0-.5-.1-.6-.3,0-.1.2-.2.4-.3s.3-.1.4-.1h0c0-.1,0-.2-.2-.4,0-.1,0-.3,0-.4-.2.1-.4.1-.6,0-.2,0-.3-.3-.4-.6h0c.2-.1.4-.1.6,0l.2.2v-1.2c-.2,0-.4,0-.5-.3s0-.5,0-.8c.2,0,.4,0,.5.3v.3c0-.5.2-.9.3-1.4-.2,0-.3-.2-.3-.4s0-.5,0-.8c.2,0,.3.2.4.4v.4c0-.4.3-.7.5-1.1,0,0,0-.2,0-.5s0-.5.2-.7v.3ZM665,422.9c0,0,.2.2.2.4s0,.4,0,.5c.2.1.3.3.5.5v-.4c0-.3.2-.6.3-.8,0,.1.2.3,0,.6,0,.3-.2.5-.3.7,0,.3.2.6.3,1v-.4c0-.4.3-.6.5-.8v.8c0,.3-.3.6-.5.8v1.2c0-.1,0-.2.2-.4.2-.3.4-.5.6-.6h0c0,.2,0,.6-.3.9s-.4.4-.5.5v.5c0,.2,0,.4-.2.6v-.2c.3-.1.4-.3.5-.4,0,0,.2-.1.3-.1,0,.3-.3.6-.5.9,0,.1-.2.2-.4.3,0,0-.2,0-.2.1-.2.6-.5,1.1-.9,1.6,0,0,0-.1.2-.1.3-.1.5-.1.7,0-.2.2-.4.5-.6.6h0c-.2.1-.4.1-.6,0-.3.4-.6.7-.9,1h0c.2,0,.3,0,.4.2l-.2.2c0,0-.2.1-.3.1s-.2,0-.3-.2l-.9.6c-.2,0-.4.2-.5.3h-.2v-.2h.2c.2,0,.3-.2.5-.2.4-.2.8-.6,1.2-.9v-.7c0-.4.3-.7.5-.9v1c.2-.3.4-.6.7-1,0-.1-.2-.3-.2-.6s0-.7.3-1c.2,0,.3.3.3.7v.3c.3-.6.6-1.2.8-1.9-.2,0-.4-.1-.5-.3s0-.6,0-.9c.2,0,.4,0,.5.3v.5c.2-.6.2-1.1.2-1.5-.2,0-.4.1-.5,0-.2,0-.3-.3-.3-.5.2-.1.4-.1.6,0,.3.1,0,0,.2.1,0-.4,0-.8-.2-1.1,0,0,0,.1-.2.1s-.2.1-.3.1c-.2,0-.4,0-.5-.3,0,0,.2-.2.3-.2s.2-.1.4-.1h.2c0-.2-.2-.4-.4-.5,0,.1-.2.2-.3.2h-.5c0-.1.2-.2.4-.3h.2l-.6-.3v-.2c.3,0,.5.1.6.2h0c0-.3,0-.5,0-.7l-.2.3ZM643.7,417.5c2.6,1.4,3.6,3.8,3.2,6.5h-.2c0,.1,0,0,0,0,.4-2.6-.7-5-3.1-6.3-1.6-.9-3.6-1.1-5.6-1-.9,0-1.8,0-2.5-.5-.7-.4-1.2-.9-1.4-1.6-.4-1.5-1.4-2.8-3-3.6s-3.6-1.1-5.6-1c-.9,0-1.8,0-2.5-.5-.7-.4-1.2-.9-1.3-1.6-.4-1.5-1.4-2.8-3-3.6-1.6-.9-3.6-1.1-5.6-1-.9,0-1.8,0-2.5-.4s-1.2-.9-1.4-1.6c-.4-1.5-1.4-2.8-3-3.6s-3.6-1.1-5.6-1c-.9,0-1.8,0-2.5-.4s-1.2-.9-1.3-1.6c-.4-1.5-1.4-2.8-3-3.6-2.5-1.3-5.9-1.3-9.2-.2h-.2v-.2c3.5-1.1,7-1.1,9.5.2,1.6.9,2.7,2.2,3.1,3.8.2.6.6,1.2,1.2,1.5s1.4.5,2.3.4c2.1-.2,4.2.1,5.8,1s2.7,2.2,3.1,3.8c.2.6.6,1.2,1.3,1.5.6.3,1.4.5,2.3.4,2.1-.2,4.2.1,5.8,1s2.7,2.2,3.1,3.8c.2.6.6,1.2,1.2,1.5s1.4.5,2.3.4c2.1-.2,4.2.1,5.8,1s2.7,2.2,3.1,3.8c.2.6.6,1.2,1.2,1.5s1.4.5,2.3.4c2.1-.2,4.2.1,5.8,1l.2-.2ZM621.7,439.9c2.6,1.4,3.6,3.8,3.2,6.5h-.2c0,.1,0,0,0,0,.4-2.6-.7-5-3.1-6.3-1.6-.9-3.6-1.1-5.6-1-.9,0-1.8,0-2.5-.4s-1.2-.9-1.3-1.6c-.4-1.5-1.4-2.8-3-3.6-1.6-.9-3.6-1.1-5.6-1-.9,0-1.8,0-2.5-.5s-1.2-.9-1.3-1.6c-.4-1.5-1.4-2.8-3-3.6-1.6-.9-3.6-1.1-5.6-1-.9,0-1.8,0-2.5-.4s-1.2-.9-1.3-1.6c-.4-1.5-1.4-2.8-3-3.6s-3.6-1.1-5.6-1c-.9,0-1.8,0-2.5-.4s-1.2-.9-1.3-1.6c-.4-1.5-1.4-2.8-3-3.6-2.5-1.3-5.9-1.3-9.2-.2h-.2v-.2c3.5-1.1,7-1.1,9.5.2,1.6.9,2.7,2.2,3.1,3.8.2.6.6,1.1,1.3,1.5.6.3,1.4.5,2.3.4,2.1-.2,4.2.1,5.8,1s2.7,2.2,3.1,3.8c.2.6.6,1.1,1.3,1.5s1.4.5,2.3.4c2.1-.2,4.2.1,5.8,1s2.7,2.2,3.1,3.8c.2.6.6,1.2,1.3,1.5s1.4.5,2.3.4c2.1-.2,4.2.1,5.8,1s2.7,2.2,3.1,3.8c.2.6.6,1.1,1.3,1.5.6.3,1.4.5,2.3.4,2.1-.2,4.2.1,5.8,1l-.3-.3ZM631.9,429.5c2.6,1.4,3.6,3.8,3.2,6.5h-.2c0,.1,0,0,0,0,.4-2.6-.7-5-3.1-6.3-1.6-.9-3.6-1.1-5.6-1-1,0-1.8,0-2.5-.4s-1.2-.9-1.3-1.6c-.4-1.5-1.4-2.8-3-3.6-1.6-.9-3.6-1.1-5.6-1-1,0-1.8,0-2.5-.4s-1.2-.9-1.3-1.6c-.4-1.5-1.4-2.8-3-3.6s-3.6-1.1-5.6-1c-1,0-1.8,0-2.5-.4s-1.2-.9-1.3-1.6c-.4-1.5-1.4-2.8-3-3.6-1.6-.9-3.6-1.1-5.6-1-1,0-1.8,0-2.5-.4s-1.2-.9-1.4-1.6c-.4-1.5-1.4-2.8-3-3.6-2.5-1.3-5.9-1.3-9.2-.2h-.2v-.2c3.5-1.1,7-1.1,9.5.2,1.7.9,2.7,2.2,3.1,3.8.2.6.6,1.1,1.3,1.5.6.3,1.4.5,2.3.4,2.1-.2,4.2.1,5.8,1s2.7,2.2,3.1,3.8c.2.6.6,1.2,1.3,1.5s1.4.5,2.3.4c2.1-.2,4.2.1,5.8,1s2.7,2.2,3.1,3.8c.2.6.6,1.1,1.3,1.5.6.3,1.4.5,2.3.4,2.1-.2,4.2.1,5.8,1,1.7.9,2.7,2.2,3.1,3.8.2.6.6,1.2,1.3,1.5.6.3,1.4.5,2.3.4,2.1-.2,4.2.1,5.8,1l-.2-.4ZM611.5,450.2c2.6,1.4,3.6,3.8,3.2,6.5h-.2c0,.1,0,0,0,0,.4-2.6-.6-5-3.1-6.3-1.6-.9-3.6-1.1-5.6-1-.9,0-1.8,0-2.5-.5-.7-.4-1.2-.9-1.3-1.6-.4-1.5-1.4-2.8-3-3.6-1.6-.9-3.6-1.1-5.6-1-.9,0-1.8,0-2.5-.4s-1.2-.9-1.3-1.6c-.4-1.5-1.4-2.8-3-3.6-1.6-.9-3.6-1.1-5.6-1-.9,0-1.8,0-2.5-.4s-1.2-.9-1.4-1.6c-.4-1.5-1.4-2.8-3-3.6-1.6-.9-3.6-1.1-5.6-1-.9,0-1.8,0-2.5-.4s-1.2-.9-1.3-1.6c-.4-1.5-1.4-2.8-3-3.6-2.5-1.3-5.9-1.3-9.2-.2h-.2v-.2c3.5-1.1,7-1.1,9.5.2,1.6.9,2.7,2.2,3.1,3.8.2.6.6,1.1,1.3,1.5.6.3,1.4.5,2.3.4,2.1-.2,4.2.1,5.8,1s2.7,2.2,3.1,3.8c.2.6.6,1.2,1.3,1.5.6.3,1.4.5,2.3.4,2.1-.2,4.2.1,5.8,1s2.7,2.2,3.1,3.8c.2.6.6,1.1,1.3,1.5.6.3,1.4.5,2.3.4,2.1-.2,4.2.1,5.8,1s2.7,2.2,3.1,3.8c.2.6.6,1.2,1.3,1.5s1.4.5,2.3.4c2.1-.2,4.2.1,5.8,1l-.2-.3ZM601.3,460.6c2.6,1.4,3.6,3.8,3.2,6.5h-.2c0,.1,0,0,0,0,.4-2.6-.6-5-3.1-6.3-1.6-.9-3.6-1.1-5.6-1-.9,0-1.8,0-2.5-.4s-1.2-.9-1.3-1.6c-.4-1.5-1.4-2.8-3-3.6-1.6-.9-3.6-1.1-5.6-1-.9,0-1.8,0-2.5-.5s-1.2-.9-1.3-1.6c-.4-1.5-1.4-2.8-3-3.6-1.6-.9-3.6-1.1-5.6-1-.9,0-1.8,0-2.5-.4s-1.2-.9-1.4-1.6c-.4-1.5-1.4-2.8-3-3.6-1.6-.9-3.6-1.1-5.6-1-.9,0-1.8,0-2.5-.4s-1.2-.9-1.3-1.6c-.4-1.5-1.4-2.8-3-3.6-2.5-1.3-5.9-1.3-9.2-.2h-.2v-.2c3.5-1.1,7-1.1,9.5.2,1.6.9,2.7,2.2,3.1,3.8.2.6.6,1.1,1.3,1.5.6.3,1.4.5,2.3.4,2.1-.2,4.2.1,5.8,1s2.7,2.2,3.1,3.8c.2.6.6,1.1,1.3,1.5.6.3,1.4.5,2.3.4,2.1-.2,4.2.1,5.8,1s2.7,2.2,3.1,3.8c.2.6.6,1.1,1.3,1.5.6.3,1.4.5,2.3.4,2.1-.2,4.2.1,5.8,1s2.7,2.2,3.1,3.8c.2.6.6,1.1,1.3,1.5.6.3,1.4.5,2.3.4,2.1-.2,4.2.1,5.8,1l-.2-.3Z"/>
  <path class="st10" d="M554.2,440.8l15.8-16.3M600.7,392.9l-8.4,8.7M573.8,420.6l14.8-15.2M603,411.6l10.9-11.1M581,433.9l-14.6,14.8M584.6,430.3l12.6-12.8M576.5,457.5l20.4-20.7M627.4,406.1l-12.1,12.2M599.8,433.9l9.7-9.8M607.9,444.4l19.7-19.9M637.9,414.1l-6.6,6.6M602.5,450l-14.2,14.4"/>
  <path class="st14" d="M460.1,450.6c.2,1.2.9,2.3,2,2.9l61.5,35.5c.9-6.1-1.7-6.3-.8-10.9l-64.5-37.2c-1.2,4.3,1.2,5.8,1.8,9.7"/>
  <path class="st11" d="M474,466.2c1.3,1.8,4.1,4.9,4,8.1v6.9l-4.1-2.3-4.1-2.4v-6.9c0-3.2,2.8-3.2,4.1-3.4h.1ZM485.6,472.8c1.3,1.8,4.1,4.9,4.1,8.1v6.9l-4.1-2.3-4.1-2.4v-6.9c0-3.2,2.8-3.2,4.1-3.4M497.2,479.4c1.3,1.8,4.1,4.9,4.1,8.1v6.9l-4.1-2.3-4.1-2.4v-6.9c0-3.2,2.8-3.2,4.1-3.4M508.8,486c1.3,1.8,4.1,4.9,4,8.1v6.9l-4.1-2.3-4.1-2.3v-6.9c0-3.2,2.8-3.2,4.1-3.4h.1ZM474,494.2c1.3,1.8,4.1,4.9,4,8.1v6.9l-4.1-2.3-4.1-2.4v-6.9c0-3.2,2.8-3.2,4.1-3.4h.1ZM485.6,500.9c1.3,1.8,4.1,4.9,4.1,8.1v6.9l-4.1-2.3-4.1-2.4v-6.9c0-3.2,2.8-3.2,4.1-3.4M497.2,507.5c1.3,1.8,4.1,4.9,4.1,8.1v6.9l-4.1-2.3-4.1-2.3v-6.9c0-3.2,2.8-3.2,4.1-3.4h0ZM508.8,514.1c1.3,1.8,4.1,4.9,4,8.1v6.9l-4.1-2.3-4.1-2.3v-6.9c0-3.2,2.8-3.2,4.1-3.4h.1Z"/>
  <path class="st1" d="M556.1,453.1l-23.2-13.5.6,4.2,19.4,11.2,3.3-1.9h0Z"/>
  <path class="st7" d="M911.4,380.9s-1-34.6,6-48.8c3-6.3,7.5-12.3,11.5-17v32.9c0,5.2,2.3,19.5-17.5,32.9"/>
  <path class="st24" d="M813.7,399.8s41.4,12.4,78.9-8.2v-40.4l-32.3,5.1-43.8,26.5-2.8,17Z"/>
  <path class="st11" d="M753.9,345l.2-52.8c0,11.7,7.7,23.5,23.1,32.4l-.2,52.8c-15.4-8.9-23.2-20.7-23.1-32.4"/>
  <path class="st7" d="M887.5,260.3l-110.5,64.4c-30.7-17.8-30.9-46.6-.4-64.4,30.6-17.8,80.2-17.8,110.8,0h.1Z"/>
  <path class="st7" d="M872.5,262.4l-91.9,54c-25.5-14.9-25.6-39-.3-54s66.6-14.9,92.2,0"/>
  <path class="st23" d="M779.3,265.4c24.7-14.5,64.4-14.9,90-1.2l3.2-1.8c-25.5-14.9-66.8-14.9-92.2,0-10.2,6-16.2,13.5-18.1,21.3,2.6-6.7,8.2-13,17.2-18.2h-.1Z"/>
  <path class="st4" d="M887.5,260.3v52.8l-110.5,64.4v-52.8l110.5-64.4Z"/>
  <path class="st10" d="M777,338.9c-12.8-7.9-20.8-17.8-23.1-28.4"/>
  <path class="st7" d="M845.6,252.6l-16.2,9.4-18.2-10.6,16.2-9.4,18.2,10.6Z"/>
  <path class="st15" d="M840.5,253l.9-.5-13.8-8-12.2,7.2.9.5,11.5-6.7,12.8,7.5h-.1Z"/>
  <path class="st7" d="M845.6,252.6v12.2l-16.2,9.4v-12.2l16.2-9.4Z"/>
  <path class="st11" d="M829.4,262v12.2l-18.2-10.6v-12.2l18.2,10.6Z"/>
  <path class="st12" d="M887.5,274.5l-110.5,64.4"/>
  <path class="st10" d="M777,361.9c-12.8-7.9-20.8-17.8-23.1-28.5"/>
  <path class="st12" d="M887.5,297.5l-110.5,64.4"/>
  <path class="st7" d="M907.6,271.1c28.3,16.4,28.4,43,.3,59.4l-51.2-29.7,51-29.7h0Z"/>
  <path class="st7" d="M905.1,276.1c23.6,13.7,23.7,35.8.3,49.4l-42.7-24.8,42.4-24.7h0Z"/>
  <path class="st23" d="M922.8,302.7c.9-9.6-5-19.3-17.6-26.6l-42.4,24.8,3.1,1.8,39.3-22.9c11,6.4,16.8,14.6,17.6,23h0Z"/>
  <path class="st4" d="M907.9,330.5l-.2,52.8-51.2-29.7.2-52.8,51.2,29.7Z"/>
  <path class="st7" d="M892.7,391.4v-39.5c-21.7,0-67.5,17.8-78.9,47.8,26,6.8,57.7,4.1,78.9-8.3"/>
  <path class="st10" d="M856.6,359.7v10.6M808.7,398.2l47.8-27.9h0l36,21"/>
  <path class="st10" d="M819.6,381.8c12.3,2.5,25.6,3,38.4,1.4,13.1-1.7,25.1-5.4,34.6-11"/>
  <path class="st7" d="M843.5,309.9l51.2,29.7c-28.2,16.4-73.9,16.4-102.2,0l51-29.7Z"/>
  <path class="st7" d="M843.6,313.3l42.9,24.9c-23.5,13.7-61.8,13.7-85.5,0l42.6-24.9Z"/>
  <path class="st23" d="M883.7,339.7c1-.5,1.8-1,2.7-1.5l-42.9-24.8-42.7,24.8,2.7,1.5,39.9-23.3,40.3,23.3Z"/>
  <path class="st11" d="M894.7,351.9v-12.3c-28.2,16.4-73.9,16.4-102.2,0l-.2,52.8c6.2,3.6,13.3,6.4,20.8,8.4.3,0,.6,0,.8-.4,12.2-30.5,58.7-48.5,80.8-48.5"/>
  <path class="st10" d="M836.9,403.2v-29.9M869.9,400.2v-43.6"/>
  <path class="st8" d="M850.6,377.9l9.9-9.9M850.2,373.8l6.2-6.3M855.1,378.7l6.2-6.3"/>
  <path class="st24" d="M848.5,399.4l-.2-.2,9.9-9.9.2.2-9.9,9.9ZM848,395.4l-.2-.2,6.2-6.3.2.2-6.2,6.3ZM852.9,400.1l-.2-.2,6.2-6.3.2.2-6.2,6.3Z"/>
  <path class="st10" d="M843.3,368.8c-18.3,0-36.6-4.1-50.9-11.9M820.5,388.7c-10.2-2-19.9-5.2-28.2-9.7M807.3,399v-52.8M765.5,369v-52.9"/>
  <path class="st19" d="M801.4,378.4l-.2-.2,14.4-14.5.2.2-14.4,14.5ZM800.8,372.5l-.2-.2,9.1-9.1.2.2-9.1,9.1ZM807.8,379.5l-.2-.2,9.1-9.1.2.2-9.1,9.1Z"/>
  <path class="st10" d="M913.3,344.1l15.6,9"/>
  <path class="st11" d="M929,301c0,10.7-7,21.4-21,29.5l-.2,52.8c1.1-.7,2.1-1.3,3.1-2,.4-.2.6-.6.6-1.1,0-44.3,5.2-49.4,17.5-65.2v-14.1h0Z"/>
  <path class="st10" d="M921.4,372.2v-46.9M928.9,338.1c-1.1,8.8-7.1,17.4-17,24.2M864.4,358.5v-8.4"/>
  <path class="st7" d="M797.6,273.2l11.8,11,10.2-5.9-11.7-11-10.2,5.9h0ZM797.6,273.2l-.2.5,11.7,11,.2-.5-11.8-11h0Z"/>
  <path class="st7" d="M809.4,284.2l-.2.5,10.2-5.9.2-.5-10.2,5.9Z"/>
  <path class="st10" d="M811.3,270.5l-10.1,5.9M815.2,274.2l-10.2,5.9M812.4,282.4l-11.7-11M816.5,280.1l-11.6-10.9"/>
  <path class="st7" d="M784.7,280.9l11.7,11,10.2-5.9-11.7-11-10.2,5.9Z"/>
  <path class="st7" d="M784.7,280.9l-.2.5,11.7,11,.2-.5-11.7-11Z"/>
  <path class="st7" d="M796.4,291.9l-.2.5,10.2-5.9.2-.5-10.2,5.9Z"/>
  <path class="st10" d="M798.3,278.2l-10.1,5.9M802.2,281.9l-10.1,5.9M799.5,290.1l-11.8-11M803.5,287.7l-11.6-10.9"/>
  <path class="st7" d="M771.7,288.5l11.7,11,10.2-5.9-11.7-11-10.2,5.9Z"/>
  <path class="st7" d="M771.7,288.5l-.2.5,11.7,11,.2-.5-11.7-11Z"/>
  <path class="st7" d="M783.4,299.5l-.2.5,10.2-5.9.2-.5-10.2,5.9Z"/>
  <path class="st10" d="M785.3,285.9l-10.1,5.9M789.3,289.5l-10.2,5.9M786.5,297.8l-11.7-11M790.5,295.4l-11.6-10.9"/>
  <path class="st0" d="M345.5,330.4v70.1c-.1,0,28.2,16.3,28.2,16.3v-70.2l-28.2-16.2Z"/>
  <path class="st0" d="M410.4,367.8l-36.8-21.2v70.2l36.6,21.1v-70.2h.2Z"/>
  <path class="st13" d="M523.1,331.2v46.3l-40.5,23.3v-46.2l40.5-23.4Z"/>
  <path class="st13" d="M485.3,348.7v7.2l-50.6-29.2v-7.1l50.6,29.2h0Z"/>
  <path class="st13" d="M526.1,325.1l-40.7,23.7-50.6-29.2,40.7-23.6,50.6,29.2h0Z"/>
  <path class="st13" d="M526.1,325.1v7.2l-40.7,23.6v-7.1l40.8-23.7h0Z"/>
  <path class="st10" d="M523.2,377.4l-24.1-13.8v-15.6M499.1,363.7l-11.1,6.5M494.2,350.9v43.1M514,339.6v43.1"/>
  <path class="st4" d="M485.6,363l38.7-23.5.7,18.4c0,1.1-.5,2.2-1.5,2.7l-38.1,22.3.3-19.9h0Z"/>
  <path class="st13" d="M523.1,337.5v1.9l-35.2,20.4v1.6l35.4-20.4c.7-.4,1.1-1.3.8-2.1-.2-.5-.5-.9-1.1-1.3h0ZM563.6,337.7c1.1.6,1.1,1.7,0,2.5l-4.4,2.5c-1.5.8-3.8.8-5.2,0l-4.4-2.5c-1.2-.6-1.2-1.7,0-2.5l4.3-2.5c1.4-.8,3.8-.8,5.2,0l4.4,2.5h.1Z"/>
  <path class="st4" d="M557,336.9v2.1s0,.2-.2.3c-.3.2-.7.2-1.1,0-.2,0-.2-.2-.2-.3v-2.1s0,.2.2.3c.3.2.7.2,1.1,0q.2-.2.2-.3"/>
  <path class="st21" d="M557,336.9c0-.2-.3-.4-.7-.4s-.7.2-.7.4.3.4.7.4.7-.2.7-.4"/>
  <path class="st0" d="M556.3,326.4c1.5,0,3.3,4.2,3.3,7.4s-.7,4.2-3.3,4.2-3.3-2-3.3-4.2c0-3.2,1.8-7.4,3.3-7.4"/>
  <path class="st27" d="M417.5,255.2c.6.4.6,1,0,1.3-.7.4-1.7.4-2.3,0s-.6-1,0-1.3c.6-.4,1.7-.4,2.3,0"/>
  <path class="st13" d="M371.3,326.6h0M445,271.2c12.3,7.1,12.4,18.6.1,25.7-12.2,7.1-32.2,7.1-44.4,0s-12.4-18.6-.1-25.7c12.2-7.1,32.1-7.1,44.4,0"/>
  <path class="st10" d="M454.3,323.8c.4,4.9-2.6,9.9-9.1,13.6-9.1,5.3-22.5,6.6-33.8,4M454.3,346.9c.4,4.9-2.6,9.9-9.1,13.6-12.2,7.1-32.2,7.1-44.4,0-6.1-3.5-9.2-8.2-9.2-12.8"/>
  <path class="st13" d="M452.4,173.7v110.2c0,4.3-3,8.7-8.6,11.9-11.4,6.6-30.1,6.6-41.6,0-5.8-3.3-8.7-7.7-8.7-12.1v-110.2c0,4.4,3,8.8,8.8,12.1,11.5,6.6,30.2,6.6,41.6,0,5.6-3.3,8.5-7.6,8.5-11.9"/>
  <path class="st0" d="M443.7,161.6c11.5,6.6,11.6,17.4.1,24.1-11.4,6.6-30.1,6.6-41.6,0s-11.6-17.4-.1-24.1c11.4-6.6,30.1-6.6,41.6,0"/>
  <path class="st13" d="M439.8,163.9c9.3,5.4,9.4,14.1.1,19.5s-24.5,5.4-33.8,0-9.4-14.2-.1-19.5c9.3-5.4,24.5-5.4,33.8,0"/>
  <path class="st4" d="M406,165.4c9.3-5.4,24.4-5.4,33.8,0,4.4,2.5,6.7,5.8,7,9,.4-3.8-2-7.6-7-10.6-9.3-5.4-24.5-5.4-33.8,0-5,2.9-7.2,6.7-6.9,10.5.3-3.3,2.6-6.4,6.9-8.9s0,0,0,0"/>
  <path class="st24" d="M450.7,166.2c.2.1.2.4,0,.6-.3.1-.6.1-.9,0s-.2-.4,0-.6.6-.1.9,0"/>
  <path class="st13" d="M450.1,166.1v5.8s0,.3-.3.4c-.4.2-.8.2-1.2,0-.2,0-.3-.3-.3-.4v-5.8s0,.3.3.4c.4.2.8.2,1.2,0,.2,0,.3-.2.3-.4"/>
  <path class="st0" d="M451.3,161v4.7c0,.3-.2.5-.6.8-.7.4-2,.4-2.8,0-.4-.3-.5-.5-.5-.8v-4.7c0,.3.2.6.6.8.7.4,2,.4,2.8,0,.4-.3.5-.5.5-.8"/>
  <path class="st13" d="M450.7,160.2c.8.4.8,1.2,0,1.6-.7.4-2,.4-2.8,0-.7-.4-.7-1.2,0-1.6.8-.3,2.1-.3,2.8,0"/>
  <path class="st2" d="M449.3,158.2c.6,0,1.2.5,1.2,1.1v1.4c0,.2-.2.4-.6.6h-1c-.4-.2-.6-.4-.7-.6v-1.3c0-.7.5-1.2,1.1-1.2"/>
  <path class="st3" d="M441.5,297v-110.1"/>
  <path class="st27" d="M420,195v.4h-.1v-.4h.1Z"/>
  <path class="st0" d="M400.8,296.9c-6.2-3.5-9.3-8.2-9.3-12.9v109.1c0,4.7,3,9.4,9.2,12.9,4.9,2.8,10.9,4.5,17.3,5.1v-109.1c-6.3-.6-12.3-2.3-17.2-5.1"/>
  <path class="st13" d="M454.3,284.1c0,4.6-3,9.2-9.1,12.7-7.4,4.3-17.6,6-27.2,5.1v109.1c9.6.9,19.8-.8,27.1-5.1,6.1-3.5,9.1-8.1,9.1-12.7v-109.1h.1ZM452.4,173.7h0"/>
  <path class="st3" d="M411.1,299.3v-110.2"/>
  <path class="st13" d="M452.4,173.7h0"/>
  <path class="st0" d="M402.2,185.6c-5.8-3.3-8.7-7.7-8.7-12.1v110.2c0,4.4,2.8,8.8,8.6,12.1,2.7,1.5,5.7,2.7,9,3.5v-110.2c-3.2-.8-6.2-2-8.9-3.5"/>
  <path class="st3" d="M452.3,259.2c-1.4,2.8-4,5.3-7.6,7.4-11.2,6.5-29.2,6.9-41.3,1.2-.8-.4-1.5-.8-2.2-1.2-3.6-2.1-6.3-4.6-7.7-7.4M452.4,196.1c-1.4,2.8-4,5.4-7.7,7.5-11.2,6.5-29,6.9-41.1,1.2l-2.4-1.2c-3.6-2.1-6.3-4.6-7.7-7.4M452.3,226c-1.4,2.8-4,5.3-7.6,7.4-11.2,6.5-29,6.9-41.1,1.2l-2.4-1.2c-3.6-2.1-6.2-4.6-7.7-7.3M454.3,301c.4,4.9-2.6,9.8-9,13.5-9.1,5.2-22.4,6.6-33.6,4-3.9-.9-7.6-2.3-10.8-4.1-6.2-3.6-9.4-8.3-9.4-13"/>
  <path class="st0" d="M337.6,389.7v-70.2c.1,3.9,2.7,7.9,7.9,10.8v70.2c-5.3-3-7.9-6.9-7.9-10.8"/>
  <path class="st13" d="M494.4,334.4v70.1c-.1,3.9-2.7,7.7-7.8,10.7v-70.1c5.2-3,7.8-6.8,7.8-10.7"/>
  <path class="st13" d="M486.7,345.1v70.1c-.1,0-39.2,22.7-39.2,22.7v-70.2c.1,0,39.2-22.7,39.2-22.7h0Z"/>
  <path class="st13" d="M447.6,367.8v70.2c-10.4,5.9-27.1,5.9-37.4,0v-70.2c10.5,6,27.1,5.9,37.4,0"/>
  <path class="st20" d="M391.6,283.2c-3.2.7-5.1,1.4-7.7,2.9l-39.1,22.7c-10.3,5.9-10.2,15.6.1,21.5l64.9,37.4c10.3,6,27,5.9,37.2,0l39.1-22.7c10.1-5.9,10.2-15.4.2-21.3l-19.5,11.3c-18.3,10.6-48,10.6-66.5,0-14.5-8.4-17.7-20.9-9.3-31l.4-20.9h.2Z"/>
  <path class="st13" d="M391.6,295.8v8.6-21.1c-2.6.7-5,1.7-7.2,2.9l-39.1,22.7c-10.3,5.9-10.2,15.6.1,21.5l64.9,37.4c5.2,3,11.9,4.5,18.6,4.5s13.5-1.5,18.6-4.5l39.1-22.7c10.1-5.9,10.2-15.4.2-21.3l-19.5,11.3c-9.1,5.3-21.2,8-33.2,8s-24.1-2.6-33.3-8c-14.4-8.3-17.6-20.7-9.5-30.8v-8.6c-6.8,5.7-10.4,12.6-10.4,20.1s6,18.2,16.9,24.5c9.8,5.6,22.7,8.8,36.3,8.8s26.5-3.1,36.2-8.8l16.1-9.3c1.2,1.2,1.8,2.4,1.8,3.4,0,1.8-1.8,3.8-4.7,5.5l-39.1,22.7c-4,2.3-9.7,3.6-15.6,3.6s-11.6-1.3-15.6-3.6l-64.9-37.4c-3-1.7-4.8-3.8-4.8-5.6s1.7-3.8,4.7-5.5l39.1-22.7c1.2-.7,2.6-1.3,4.1-1.9v-6.3,12.5h.2Z"/>
  <path class="st23" d="M381.2,317.4v1.7c0,9.5,6,18.2,16.9,24.5,9.8,5.6,22.7,8.8,36.3,8.8s26.5-3.1,36.2-8.8l16.1-9.3c.6.6,1,1.2,1.4,1.8.3-.6.5-1.1.5-1.6,0-1.1-.6-2.3-1.8-3.4l-16.1,9.3c-9.8,5.7-22.6,8.8-36.2,8.8s-26.5-3.1-36.3-8.8c-10.3-5.9-16.2-14-16.8-22.9h-.2ZM391.5,289.5c-1.5.5-2.9,1.1-4.1,1.8l-39.1,22.7c-2.9,1.7-4.7,3.8-4.7,5.5s.2,1.1.5,1.6c.7-1.3,2.1-2.7,4.2-3.9l39.1-22.7c1.2-.7,2.6-1.3,4-1.8v-3.3h.1Z"/>
  <path class="st15" d="M496.4,358.8v23.7l-69.5,40.1v-23.7l69.5-40.1Z"/>
  <path class="st15" d="M426.9,398.9l-1.3-.8-89.5-51.5v23.7l90.9,52.3v-23.7h-.1Z"/>
  <path class="st13" d="M495,357.9l-53.5,30.8c-9.3,4.2-20,4.2-29.3,0l-74.8-43-1.4.8,89.4,51.5h0l1.4.8,69.5-40.1-1.4-.8h0Z"/>
  <path class="st5" d="M426.9,398.9v23.7"/>
  <path class="st7" d="M995.2,309.4h3c1.6,0,2.9,1.3,2.9,2.9v79.2c0,2.4-2,4.4-4.4,4.4s-4.4-2-4.4-4.4v-79.2c0-1.6,1.3-2.9,2.9-2.9"/>
  <path class="st10" d="M1001.1,373.4c-1.2.9-2.8,1.5-4.4,1.5s-3.2-.6-4.4-1.5"/>
  <path class="st4" d="M992.3,327.4c1.2.9,2.8,1.5,4.4,1.5s3.2-.5,4.4-1.5v-6.5h-8.8v6.5Z"/>
  <path class="st10" d="M999.7,372.7c.2,0,.4-.2.4-.4s-.2-.4-.4-.4-.4.2-.4.4.2.4.4.4M1001.1,355.4c-1.2.9-2.8,1.5-4.4,1.5s-3.2-.6-4.4-1.5M994.3,354.6c.2,0,.4-.2.4-.4s-.2-.4-.4-.4-.4.2-.4.4.2.4.4.4M992.3,337.3c1.2.9,2.8,1.5,4.4,1.5s3.2-.5,4.4-1.5M999,336.4c.2,0,.4-.2.4-.4s-.2-.4-.4-.4-.4.2-.4.4.2.4.4.4"/>
  <path class="st11" d="M1029.7,261.9v44.6c0,0-61.5,35.6-61.5,35.6v-44.6c0,0,61.5-35.6,61.5-35.6"/>
  <path class="st10" d="M969.8,298.6l58.4-33.8v40.3"/>
  <path class="st4" d="M968.2,342l-2.1-1.2v-44.6c0,0,2,1.2,2,1.2v44.6h0Z"/>
  <path class="st7" d="M968,297.5l-2.1-1.2,61.6-35.6,2.1,1.2-61.6,35.6ZM276.8,317.4l.3,148.6-32.6,18.8-.3-148.6,32.6-18.8Z"/>
  <path class="st11" d="M244.6,484.8l-5.8-3.2-.3-148.6,5.8,3.1.3,148.6h0Z"/>
  <path class="st10" d="M277.2,409.6l-32.6,18.8-5.8-3.2M277.2,428.4l-32.6,18.8-5.8-3.1M277.2,447.2l-32.6,18.8-5.8-3.1"/>
  <path class="st7" d="M254.5,341.9l-5.8-3.1,32.6-18.8,5.8,3.1-32.6,18.8ZM244.2,336.3l-5.8-3.2,32.6-18.8,5.8,3.2-32.6,18.8ZM287.1,323.1l.4,148.6-32.6,18.8-.4-148.6,32.6-18.8Z"/>
  <path class="st11" d="M254.9,490.5l-5.8-3.2-.4-148.6,5.8,3.1.4,148.6h0Z"/>
  <path class="st10" d="M287.5,415.2l-32.6,18.8-5.8-3.2M287.5,434l-32.6,18.8-5.8-3.1M287.5,452.8l-32.6,18.8-5.8-3.1M270.9,352.3c7.2-4.1,13-.8,13.1,7.4,0,8.2-5.8,18.3-13,22.4s-13,.8-13-7.4,5.8-18.3,13-22.4h-.1Z"/>
  <path class="st15" d="M279.9,351.3c2.2,1.4,3.5,4.2,3.6,8.2,0,8.2-5.8,18.3-13,22.5-3.5,2-6.6,2.2-9,1,2.4,1.5,5.8,1.4,9.5-.7,7.2-4.1,13-14.2,13-22.4s-1.6-7.2-4.1-8.5h0Z"/>
  <path class="st23" d="M264.4,357.8h.2l.6.9v.2h-.2l-.6-1v-.2h0ZM271,380.5h.1v1.8h-.2v-1.7c.1,0,.1,0,.1,0ZM270.9,352.1h.1v1.8h-.2v-1.7c.1,0,.1,0,.1,0ZM276.7,375.5h.2l.6.9v.2h-.2l-.6-.9v-.2ZM259.7,366h1.1v.3h-.1v.2h-1.1v-.3l.2-.2h-.1ZM281.1,368h1.1v.3h-.1v.2h-1.1v-.3l.2-.2h-.1ZM260.8,379.8h.2v.2l-1.1,1.4h-.1v-.2l1.2-1.4h-.2ZM282.1,353.1h.2v.2l-1.1,1.4h-.1v-.2l1.2-1.4h-.2ZM265.2,382.1v.2l-.6,1.7h-.1c0,.1,0-.1,0-.1l.6-1.7.2-.2h-.1ZM277.5,350.4v.2l-.6,1.7h-.1v.2-.2l.6-1.7.2-.2h-.1ZM259.2,373.8h.1v.3c-.1,0-1.4.8-1.4.8h-.1v-.3c.1,0,1.4-.8,1.4-.8ZM283.9,359.6h.1v.3c-.1,0-1.4.8-1.4.8h-.1v-.3c.1,0,1.4-.8,1.4-.8Z"/>
  <g>
    <path class="st11" d="M807.4,548.5c15.7,9.1,41.2,9.1,56.8,0,15.6-9.1,15.5-23.8-.2-33-15.7-9.1-41.2-9.1-56.8,0-15.6,9.1-15.5,23.9.2,33Z"/>
    <path class="st7" d="M861.7,515.7v14.5c0,3.8-2.5,7.7-7.6,10.6-10.1,5.8-26.5,5.8-36.7,0-5.1-2.9-7.7-6.9-7.7-10.7v-14.5c0,3.8,2.5,7.8,7.7,10.7,10.2,5.8,26.6,5.8,36.7,0,5-3,7.6-6.9,7.6-10.6Z"/>
    <path class="st7" d="M854,505c10.2,5.8,10.2,15.3.1,21.3-10.1,5.8-26.5,5.8-36.7,0-10.2-5.8-10.2-15.3-.1-21.3,10.1-5.9,26.5-5.9,36.7,0Z"/>
    <path class="st7" d="M848.4,508.3c7,4,7,10.6,0,14.7-7,4-18.3,4-25.3,0s-7-10.6,0-14.7c7-4.1,18.3-4.1,25.3,0Z"/>
    <path class="st7" d="M848.4,508.3c7,4,7,10.6,0,14.7-7,4-18.3,4-25.3,0s-7-10.6,0-14.7c7-4.1,18.3-4.1,25.3,0Z"/>
    <path class="st23" d="M823,510.5c7-4.1,18.3-4.1,25.3,0,3,1.7,4.8,4,5.2,6.2.6-3-1.2-6.1-5.2-8.4-7-4.1-18.4-4.1-25.3,0-3.9,2.3-5.6,5.4-5.1,8.4.4-2.3,2.1-4.5,5.1-6.2Z"/>
    <path class="st23" d="M817.5,526.3c-5.1-2.9-7.7-6.9-7.7-10.7v14.5c0,3.8,2.5,7.8,7.7,10.7,2.5,1.5,5.5,2.5,8.6,3.3v-14.5c-3.1-.7-6.1-1.8-8.6-3.3Z"/>
    <path class="st23" d="M828.3,530v14.5c.7.1,1.5.2,2.2.3v-14.5c-.8,0-1.5-.2-2.2-.3Z"/>
    <path class="st22" d="M819.9,488.1v25.7c0,2.4,1.6,4.7,4.7,6.5,6.2,3.6,16.3,3.6,22.5,0,3.1-1.8,4.6-4.1,4.6-6.5v-25.7s-31.8,0-31.8,0Z"/>
  </g>
</svg>